<?xml version="1.0" encoding="utf-8"?>
<!-- Generator: Adobe Illustrator 25.2.0, SVG Export Plug-In . SVG Version: 6.00 Build 0)  -->
<svg version="1.1" id="Layer_1" xmlns="http://www.w3.org/2000/svg" xmlns:xlink="http://www.w3.org/1999/xlink" x="0px" y="0px"
	 viewBox="50 50 900 900" style="enable-background:new 0 0 1000 1000;" xml:space="preserve">
<style type="text/css">
	.st0{fill:url(#SVGID_1_);}
	.st1{fill:url(#SVGID_2_);}
	.st2{fill:url(#SVGID_3_);}
	.st3{fill:url(#SVGID_4_);}
	.st4{fill:url(#SVGID_5_);}
	.st5{fill:url(#SVGID_6_);}
	.st6{fill:url(#SVGID_7_);}
	.st7{fill:url(#SVGID_8_);}
	.st8{fill:#FFFFFF;}
	.st9{fill:url(#SVGID_9_);}
	.st10{fill:url(#SVGID_10_);stroke:url(#SVGID_11_);}
	.st11{fill:url(#SVGID_12_);}
	.st12{fill:url(#SVGID_13_);}
	.st13{fill:url(#SVGID_14_);}
	.st14{fill:url(#SVGID_15_);}
	.st15{fill:url(#SVGID_16_);}
</style>
<linearGradient id="SVGID_1_" gradientUnits="userSpaceOnUse" x1="550.2638" y1="764.8447" x2="335.681" y2="552.6152" gradientTransform="matrix(1 0 0 -1 0 1000)">
	<stop  offset="0" style="stop-color:#3FAADE"/>
	<stop  offset="0.1672" style="stop-color:#3FA6DA"/>
	<stop  offset="0.35" style="stop-color:#3B97CF"/>
	<stop  offset="0.5403" style="stop-color:#3483BE"/>
	<stop  offset="0.7356" style="stop-color:#2D66A4"/>
	<stop  offset="0.9331" style="stop-color:#223E82"/>
	<stop  offset="1" style="stop-color:#263471"/>
</linearGradient>
<path class="st0" d="M484,460.1H365.6c-6.4,0-11.6-5.2-11.6-11.6V269.9c0-6.4,5.2-11.6,11.6-11.6H484c6.4,0,11.6,5.2,11.6,11.6
	v178.7C495.7,454.9,490.5,460.1,484,460.1z"/>
<linearGradient id="SVGID_2_" gradientUnits="userSpaceOnUse" x1="833.9666" y1="-21.1388" x2="98.1808" y2="706.5774">
	<stop  offset="0" style="stop-color:#3FAADE"/>
	<stop  offset="0.1672" style="stop-color:#3FA6DA"/>
	<stop  offset="0.35" style="stop-color:#3B97CF"/>
	<stop  offset="0.5403" style="stop-color:#3483BE"/>
	<stop  offset="0.7356" style="stop-color:#2D66A4"/>
	<stop  offset="0.9331" style="stop-color:#223E82"/>
	<stop  offset="1" style="stop-color:#263471"/>
</linearGradient>
<path class="st1" d="M97.9,663.2c16.8-16.9,33-33.2,49.2-49.5c0,0,0.1-0.1,0.2-0.2c0.8-0.5,7.9-7.1,8.2-7.3c7.4-7,7.4-7,14.8-14
	l0.1-0.1c2.2-2.1,4.7-4,6.7-6.3c4.7-5.4,9.8-10.4,15.1-15.2c1.6-1.4,3.2-2.9,4.8-4.3c7.9-7.6,15.7-15.1,23.6-22.7
	c15-15.1,56.7-51.2,57.9-50.2c16.2,13.2,32.3,26.4,48.4,39.7c14.5,12,29.2,23.8,44.9,34.3c7.8,5.2,15.1,5.5,23.1,0.5
	c10.8-6.8,21-14.4,30.9-22.4l0,0c0.4-0.3,0.7-0.6,1.1-0.9l-0.1,0.1c0.3-0.3,0.7-0.6,1-0.9l0,0c1.3-1,2.6-2,3.9-3.1
	c19.5-15.7,38-32.3,55.3-50.4c21.8-21.2,41.8-43.8,59.7-68.4v-0.1c1.2-1.6,2.5-3.3,3.7-4.9c14.8-19.8,26.7-35.4,38.1-57.4l0.2-0.4
	c0.4-0.8,2.3-4.4,2.2-4.4c0.3-0.3,1.5-2.3,1.9-2.8c0-0.1,0.1-0.1,0.1-0.2c0.5-0.8,2.4-4.3,2.7-4.9c3.5-6.3,4.2-7.5,7.7-13.8l0,0
	c0.7-1.3,1.4-2.5,2-3.8c1-1.6,2.1-3,3-4.7c9.6-19.3,17.8-39.1,24.7-59.5c3.8-10.4,7.4-20.8,9.5-31.7c20.9,5.7,41.6,11.4,63.6,17.4
	c-9.5-23.9-18.4-46.4-27.3-69c-14.3-37-28.6-74-43.1-111.7c-13.5,10.8-26.1,21-38.7,31.2c-0.8,0.7-1.7,1.4-2.4,2.2
	c-0.4,0.4-0.8,0.8-1.3,1.2c-26.2,21.1-52.5,42.2-78.7,63.4c-10.2,8.2-20.4,16.5-31.6,25.6c22.3,5.7,43.4,11.1,64.4,16.5
	c0.2,0-1.4,0.2-0.9,0.6c-0.6-0.3-0.4-1,0.9-0.6c-0.2,1.2-0.5,2.3-0.9,3.8c-8.9,31-17.9,58.1-32.8,84.9c-4.2,7.9-5.8,11.2-8.1,15.5
	c-2.7,5-5.4,9.4-5.7,9.9c-4.9,8.7-8,12.9-9.6,15.3c-2.5,3.7-3.9,5.8-6.1,8.8c-2,2.7-3.9,5.1-8.8,11.6c-4.2,5.5-6.3,8.5-9.5,12.3
	c-5.3,6.2-6.2,7.1-8.7,10.3c-2.5,3-3.8,4.5-4.3,5c-2,2.1-2.2,2.4-3.4,4c-0.9,1.2-1.9,2.5-3.3,4.2c-1.8,2.2-2.7,2.6-4.6,5
	c-0.9,1.2-2.3,2.6-3.3,3.7c-2.2,2.4-1.8,2.2-4.1,4.4c-4.7,4.5-6.6,6.1-8.6,8.1c-3.9,3.8-7.3,7.8-9.3,9.4c-1.3,1.1-5.9,4.9-8.7,7.5
	c-7.2,6.7-9,9.3-14.1,13.1c-1.1,0.8-9.3,8.3-10.4,9.1c-0.4,0.3-16-10.7-18.2-12.6c-0.5-0.4-2.8-2-3.3-2.3c-2-1.5-3.4-2.2-5.5-4
	c-6-4.8-8.6-7.1-15.9-13.3c-16.5-13.3-28.7-23.4-51.8-42.7c-6.6-5.2-14.2-6.2-22.1-2.5l0,0c-0.7,0.4-1.4,0.8-2.1,1.2l0.1-0.1
	c-0.6,0.4-1.2,0.7-1.9,1.1c-0.4,0.3-4.1,3.2-4.7,3.8c-1,1-1.9,2-2.9,3c-0.3,0.3-0.6,0.5-0.9,0.8c-1.4,1.3-2.7,2.6-4.1,3.8
	c-0.2,0.2-0.5,0.5-0.7,0.7c-7,6.7-14,13.4-20.9,20l0,0c-3.2,3-6.3,6.1-9.4,9.1c-1.3,1.2-2.6,2.5-3.9,3.7h0.2l-0.2,0.1
	c-0.3,0.3-0.6,0.6-0.9,0.9l0,0c-0.5,0.5-0.9,0.9-1.4,1.4l0,0c-0.3,0.3-0.6,0.6-0.9,0.9c-0.6,0.6-1.3,1.3-1.9,1.9
	c-17.6,17-35.3,34-52.9,50.9c-8.8,8.5-17.6,17-26.5,25.5c-10.9,10.4-21.8,20.7-32.4,30.9 M147.2,613.5L147.2,613.5L147.2,613.5
	L147.2,613.5z"/>
<linearGradient id="SVGID_3_" gradientUnits="userSpaceOnUse" x1="1004.9962" y1="151.7871" x2="269.2103" y2="879.5035">
	<stop  offset="0" style="stop-color:#3FAADE"/>
	<stop  offset="0.1672" style="stop-color:#3FA6DA"/>
	<stop  offset="0.35" style="stop-color:#3B97CF"/>
	<stop  offset="0.5403" style="stop-color:#3483BE"/>
	<stop  offset="0.7356" style="stop-color:#2D66A4"/>
	<stop  offset="0.9331" style="stop-color:#223E82"/>
	<stop  offset="1" style="stop-color:#263471"/>
</linearGradient>
<path class="st2" d="M363.6,613.2c-31.9-16.5-58.3-40.4-86.5-64c-12.4,12.8-24.7,25.4-36.9,38.1c-9.4,9.1-18.9,18.3-28.3,27.4
	c0.5,0.7,0.8,1.5,1.1,2.3c-0.3-0.8-0.7-1.5-1.1-2.3c-11.4,11-22.8,22-34.2,33c-13.8,13.3-27.5,26.6-41.3,39.9
	c0.3,0.4,0.5,0.8,0.8,1.2c-0.2-0.4-0.5-0.8-0.8-1.2c-11.9,13.1-23.9,26.1-37.8,41.3c0,5.9,0,15.9,0,26c0,37.8-0.1,75.7,0,113.5
	c0,6.4,1.5,12.5,4.6,18.1c8.7,16.1,22.3,25.7,40.5,25.8c77.5,0.4,155.1,0.1,232.6,0.1c0.9,0,1.9,0,2.8,0c8.2,0,16.4,0,24.5,0
	c19.5,0,39,0,58.5,0l0,0c27,0.1,54,0.2,80.9,0.2c3.2,0,6.5-0.7,9.7-1.1c12.4-1.4,21-8.9,28.5-17.9c8.4-10.1,10.4-22.1,9.4-34.9
	c0-6,0-11.9,0-17.9c0-11,0-22.1,0-33.1c0-16.4,0-32.7,0-49.1c0-15.1,0-30.2,0-45.3c0-17.3,0-34.6,0-51.9c0-6.6,0-13.2,0-19.8
	c0-7.6,0-15.1,0-22.7c0-3.8,0-7.5,0-11.3c0-0.9,0-1.9,0-2.9c0-15.4,0-30.8,0-46.3c0-5.3,0-10.7,0-16c0-7.3,0-14.5,0-21.8
	c0-27.7,0-55.4,0-85.5c-14.7,23.5-31.3,42.8-47.3,62.4c-0.3,0.4-0.7,0.9-1,1.3c0,0,0-0.1-0.1-0.1c-13.5,14.1-27,28.2-40.5,42.3
	l-1,1.1c-0.1,0.1-0.3,0.3-0.4,0.4c-0.5,0.4-1,0.8-1.5,1.2l0,0c-10.9,9.5-21.8,19-32.7,28.5c-0.4,0.4-0.9,0.7-1.3,1.1v-0.1
	c-15.8,11.8-29.7,22-46.6,32.3c-8.7,5.3-4,2.7-6.2,3.9c-0.5,0.3-3.8,2.1-4.3,2.4C393.3,618.9,379.4,622.6,363.6,613.2 M381.4,654.9
	L381.4,654.9L381.4,654.9z M243.1,750.4c20.7,0,41.4,0,62.3,0v24.4c-8.8,0-17.6,0-26.3,0c-11.8,0-23.7,0-35.8,0 M242.7,752.1
	c0,0-0.1-0.1-0.2-0.1C242.6,752,242.6,752,242.7,752.1z M305.8,800.2c0.2,0.1,0.3,0.2,0.4,0.2C306.1,800.4,306,800.3,305.8,800.2
	c0,7.7,0,15.3,0,23.9c-16.3,0-32.4,0-48.4,0c-4.8,0-9.6,0-15.1,0c0-8.4,0-16.2,0-23.9c-0.2,0.4-0.3,0.9-0.4,1.3
	c0.1-0.4,0.3-0.9,0.4-1.3 M405.8,656.6v20c13.1,1.7,25.6,4.6,37,10.8c2.2,1.2,5.7,1.8,5.1,5.7c-0.3,0.8-0.7,1.5-1,2.3
	c0,0.5,0,0.9,0,1.4c0-0.4,0-0.9,0-1.4l0,0l0,0l0,0l0,0c-2.7,5.8-5.3,11.5-8.1,17.5c-18-8.5-36.5-15-56.9-9.8
	c-7.6,1.8-14.4,4.9-17,13c-3.2,10,2.2,18.2,14.9,22.7c17.8,6.4,36.6,9.7,53.6,18.5h0.1c0.4,0.2,0.8,0.4,1.2,0.6l-0.1-0.1
	c0.4,0.3,0.8,0.5,1.1,0.8h0.1l0,0c0.9,0.6,1.8,1.2,2.8,1.9l0,0c0.6,0.4,1.2,0.9,1.8,1.3c0.3,0.2,0.6,0.4,0.9,0.7
	c9,6.8,14.7,22.4,14.6,28.2c-0.7,8-0.6,11.8-1.9,15.3c-3.9,10.7-10,20.6-19.9,26.1c-7.3,4.1-15.8,6.5-24.7,8.2
	c-1.7,0.3-4.6-0.3-3.6,3.2c0,7.4,0,14.8,0,22.8c-7.3,0-14.2,0-21,0c-0.3-0.2-0.6-0.2-0.8,0c-3.8-0.4-1.1-3.8-2.5-5.3l0,0v-0.1
	c0.1-1.1,0.1-2.1,0.2-3.2l0,0c0-3.2,0-6.4,0.1-9.6c-0.1-1.1-0.2-2.3-0.4-3.4c0.3-0.2,0.3-0.5,0.1-0.8c0.1-0.2,0.2-0.4,0.3-0.7
	c0-0.1-0.1-0.2-0.2-0.3c-0.5-0.5-1-0.9-1.5-1.4c-0.9-0.1-1.8-0.2-2.7-0.3l0,0c-16.8-2.5-32.6-7.5-46.8-17.3c0.9-2.9,1.7-5.4,2.4-7.9
	c-1,0-1.7,0.3-2.3,0.7c0.5-0.4,1.2-0.6,2.3-0.7c2.6-5.1,5.2-10.2,7.8-15.4c8.8,4.5,16.9,10.2,26.7,11.8l0,0
	c13.6,4.4,27.3,5.5,41.2,2.2c9.1-2.2,15.3-7.3,16.5-17c1.2-9.8-5.3-14.6-12.9-18.2c-13.3-6.3-27.8-8.7-41.8-12.3
	c-13.2-5.5-26.3-11.2-33.2-24.9c-1.3-2.6-1.3-3.1-2.2-5.9c-0.2-0.9-0.4-1.6-0.6-2.5c-0.3-1.2-0.2-0.7-0.3-1.7
	c-1.4-10.2-0.3-16.4,1.5-22c1.1-3.4,3.1-7.4,4-9.2c1.6-3,2.9-5.1,3.4-5.9c0.2-0.3,0.4-0.5,0.6-0.8c0.2-0.2,0.3-0.4,0.6-0.7
	c0.6-0.7,0.7-0.8,1.4-1.6c0,0,0.8-0.8,1.6-1.6l0.9-0.8c0.2-0.2,0.4-0.4,0.6-0.6l0.6-0.3c0.5-0.5,1-0.8,1.6-1.1l0.9-0.6
	c1.1-0.9,2.4-1.5,3.1-2c14.3-7.4,15.6-6.9,25.9-8.5l0.3-0.1l0.1-0.1V676v-0.3c0-0.1,0-0.3,0-0.4c0-0.7,0-1.2,0-1.9
	c0-0.3,0-0.6,0-0.9c0-5.4,0.1-10.7,0.1-16.1l0,0c0-0.6,0-1.2,0-1.8c8.1-1.9,16.1-2,24.2,0.1l0,0
	C405.9,655.5,405.8,656.1,405.8,656.6 M438.1,759.2c-0.1-0.1-0.3-0.2-0.5-0.3C437.8,759,437.9,759.1,438.1,759.2z M374,843.2
	c0.2-0.1,0.5-0.1,0.8-0.1c0.2,0,0.5,0,0.7,0c-0.2,0-0.5,0-0.7,0C374.5,843.1,374.2,843.1,374,843.2z M373.6,843.6
	c0.1-0.1,0.2-0.2,0.3-0.3C373.7,843.4,373.7,843.5,373.6,843.6z M380.1,853.9c-0.1-0.4-0.1-0.8-0.2-1.2
	C380,853.1,380,853.5,380.1,853.9z"/>
<linearGradient id="SVGID_4_" gradientUnits="userSpaceOnUse" x1="987.8184" y1="134.4187" x2="252.0324" y2="862.1351">
	<stop  offset="0" style="stop-color:#3FAADE"/>
	<stop  offset="0.1672" style="stop-color:#3FA6DA"/>
	<stop  offset="0.35" style="stop-color:#3B97CF"/>
	<stop  offset="0.5403" style="stop-color:#3483BE"/>
	<stop  offset="0.7356" style="stop-color:#2D66A4"/>
	<stop  offset="0.9331" style="stop-color:#223E82"/>
	<stop  offset="1" style="stop-color:#263471"/>
</linearGradient>
<path class="st3" d="M634.5,383.3c0,6,0,11.5,0,17.3c24.7,0,49-0.1,73.4,0.1c3.5,0,5.9-1.1,8.2-3.6c14.3-15.2,28.7-30.4,43-45.5
	c15.8,0,31.5,0,47,0c8.6,16.5,22,23.5,37.4,19.8c14-3.4,23.9-15.9,23.8-30.2c-0.1-13.8-10.6-27.2-23.8-30.6
	c-12.6-3.3-32.1,2-38.6,24.2c-17.7,0-35.4,0-53.2,0c-15.3,16.2-30.6,32.3-46,48.6C682,383.3,658.3,383.3,634.5,383.3z M835.6,326.3
	c8.3-0.1,15,6.5,15,14.8c0,7.9-6.7,14.6-14.7,14.7c-8.1,0.1-14.9-6.9-14.8-15C821.1,333.2,828,326.4,835.6,326.3z"/>
<linearGradient id="SVGID_5_" gradientUnits="userSpaceOnUse" x1="1131.8577" y1="275.6773" x2="392.656" y2="1006.7719">
	<stop  offset="0" style="stop-color:#3FAADE"/>
	<stop  offset="0.1672" style="stop-color:#3FA6DA"/>
	<stop  offset="0.35" style="stop-color:#3B97CF"/>
	<stop  offset="0.5403" style="stop-color:#3483BE"/>
	<stop  offset="0.7356" style="stop-color:#2D66A4"/>
	<stop  offset="0.9331" style="stop-color:#223E82"/>
	<stop  offset="1" style="stop-color:#263471"/>
</linearGradient>
<path class="st4" d="M700.9,576.9c-0.8,0-1.6,0-2.3,0c-4.6,0-9.2,0-13.8,0 M713.2,576.9c-15.4,0-3.7,0-4.3,0c-2.7,0.1-5.3,0-8,0
	 M684.8,576.9h-50.9l0,0c0.1,2.7-0.1,25.7,0,28.5h3.7h0.3h0.4c19.3,0,38.7-0.1,58-0.1c0.4,0,0.9,0,1.3,0c1.8,0,3.6,0,5.3,0
	c4.8,0,9.5,0,13.4,0c1.1,0,2.1,0.4,2.9,1.1c6.9,6.4,13,12.2,19.9,18.6c0.8,0.7,1.8,1.1,2.9,1.1h37.8c1.1,2.1,2.1,4,3.2,5.9
	c1.3,2.5-0.2,5.6-2.9,6.1l-0.9,0.2l0,0c-3.5,0-7-0.1-10.5-0.2l0,0c-0.3-0.2-0.5-0.2-0.8,0c0.1,0,0.3,0,0.4,0c-0.1,0-0.3,0-0.4,0
	c-4.1,0-8.2,0-12.2,0c-0.6,0-1.2,0.1-1.8,0.4c-0.1,0-0.2,0.1-0.3,0.1c0.3-0.1,0.6-0.3,0.9-0.5c-1.2,0-2.4,0-3.6,0
	c-0.7,0-1.4,0-2.1,0c-1.2,0-2.4,0-3.6,0c-1,0-2,0-3,0c-2.4,0-4.8,0-7.2,0c-0.7,0-1.4-0.2-2-0.5c-6.7-3.9-9.8-11.4-15.5-15.8
	c-0.7-0.6-1.6-0.9-2.6-0.9H634V637h64.3c1.1,0,2.1,0.4,2.9,1.1c13,12.3,25.1,23.8,37.4,35.5c1,0.9,2.3,1.3,3.6,1.1
	c16.4-3.2,30.7,2.7,37,15.7c5.1,10.6,4,21.1-2.6,30.4c-8.4,11.8-20.6,14.5-34.4,11.7c-7.2-1.5-12.2-6.3-17.4-11.2
	c-2.3-2.1-5.9-1.1-6.8,1.8c-2.9,9.2-7,17.4-12.6,24.8c-0.3,0.4-0.6,0.8-1,1.2l0.1-0.1c-0.3,0.3-0.6,0.7-0.9,1
	c-0.4,0.4-0.8,0.9-1.2,1.3c-8,7.7-16.8,14.2-27.2,18.3l0,0c0,0.1,0,0.3,0,0.4c0-0.1,0-0.3,0-0.4c-0.9,0.3-1.8,0.6-2.7,0.9
	c0.1,0.1,0.2,0.2,0.2,0.3c-0.1-0.1-0.2-0.2-0.2-0.3c-9.4,3.3-17.2,3.8-19.9,3.7l-0.3-0.2l-0.2,0.2l0,0c-3.9-0.2-7.7-0.4-11.6-0.6
	l0,0h-5.9v95.7c13.6,1.1,26.7-0.3,39.9-0.7c5.9,0.2,5.9,0.2,5.6-6.3c0.9-9.3,1.9-18.6,2.8-27.9c0.2-1.8,1.5-3.3,3.3-3.7
	c4.5-0.9,8.7-2.6,12.9-4.5c3.8-1.6,7.7-3.2,11.6-4.8c1.4-0.6,3.1-0.3,4.3,0.7c8.4,7,16.7,14,25.1,21c1.4,1.1,3.3,1.3,4.8,0.4
	c8.1-4.8,15.2-9.9,21.5-16c4.9-3.7,9.2-7.9,13.3-13c1.1-1.4,1.2-3.4,0.2-4.9c-3.9-5.9-7.8-11.8-11.6-17.6c0.1-0.2,0-0.4-0.3-0.5
	c-0.3-0.4-0.5-0.7-0.8-1.1l0.1,0.1c-0.3-0.4-0.6-0.8-0.9-1.2l0.1,0.1c-0.4-0.6-0.8-1.2-1.2-1.8c-0.3-0.4-0.6-0.8-0.8-1.2l0.1,0.1
	c-0.3-0.4-0.6-0.7-0.9-1.1v-0.2c-0.7-1.1-1.4-2.2-2.1-3.3c-1-1.7,0.2-2.9,0.9-4.2c3.8-6.6,7.5-13.3,11.3-19.9c0.9-1.6,1.9-3.2,3-5.1
	c6,0.3,12.1,0.8,18.2,1c5.7,0.2,11.3,0.1,17.4,0c1.4,0,2.7-0.7,3.5-1.8c5-7.9,10.8-31.2,10.5-44.6c0-1.7-1.1-3.2-2.8-3.8
	c-9.4-3.3-19-6.7-28.4-10.1c-1.4-0.5-2.4-1.7-2.7-3.1c-1.5-7.5-2.9-14.8-4.2-22.3c-0.4-2.6-2.9-5.2-0.5-8c5.6-4.3,11.2-8.6,16.9-13
	c21.7,1.4,35.2-13.6,36.8-29.1c1.4-13.1-8.1-27.8-22.4-32.4c-15.2-4.9-30.9,0.9-39.4,18.5c-0.7,1.4-2.1,2.4-3.8,2.4h-28.1
	c-1.1,0-2.2-0.5-3-1.3c-8.9-9.5-15.9-18.5-25.2-28.5h-6.1 M808.9,631.2c-9-0.6-15.1-7.6-14.7-16.8c-0.2-7.9,9.6-14.3,15.9-13.7
	c8.6,0.7,15,7.4,14.6,15.8C824.4,624.9,817,631.7,808.9,631.2z"/>
<linearGradient id="SVGID_6_" gradientUnits="userSpaceOnUse" x1="1122.6345" y1="270.7297" x2="386.8485" y2="998.4461">
	<stop  offset="0" style="stop-color:#3FAADE"/>
	<stop  offset="0.1672" style="stop-color:#3FA6DA"/>
	<stop  offset="0.35" style="stop-color:#3B97CF"/>
	<stop  offset="0.5403" style="stop-color:#3483BE"/>
	<stop  offset="0.7356" style="stop-color:#2D66A4"/>
	<stop  offset="0.9331" style="stop-color:#223E82"/>
	<stop  offset="1" style="stop-color:#263471"/>
</linearGradient>
<path class="st5" d="M739.3,715.3c6.9,6,17.5,4.8,23.1-2.4c5.4-7,4.5-16.4-2.4-21.3c-7.6-5.4-14.9-4.7-22.1,2.8
	c-7.9-8.5-15.5-16.7-22.4-24.1h-83.9v16.5h75.8C718.5,696.7,728.8,706.1,739.3,715.3z"/>
<linearGradient id="SVGID_7_" gradientUnits="userSpaceOnUse" x1="1022.9964" y1="169.9868" x2="287.2104" y2="897.7032">
	<stop  offset="0" style="stop-color:#3FAADE"/>
	<stop  offset="0.1672" style="stop-color:#3FA6DA"/>
	<stop  offset="0.35" style="stop-color:#3B97CF"/>
	<stop  offset="0.5403" style="stop-color:#3483BE"/>
	<stop  offset="0.7356" style="stop-color:#2D66A4"/>
	<stop  offset="0.9331" style="stop-color:#223E82"/>
	<stop  offset="1" style="stop-color:#263471"/>
</linearGradient>
<path class="st6" d="M633.2,515.6H732v-17.9h-98.8V515.6z"/>
<g>
	
		<linearGradient id="SVGID_8_" gradientUnits="userSpaceOnUse" x1="857.2858" y1="480.7452" x2="711.1809" y2="625.2477" gradientTransform="matrix(1 0 0 -1 0 1000)">
		<stop  offset="0" style="stop-color:#3FAADE"/>
		<stop  offset="0.1672" style="stop-color:#3FA6DA"/>
		<stop  offset="0.35" style="stop-color:#3B97CF"/>
		<stop  offset="0.5403" style="stop-color:#3483BE"/>
		<stop  offset="0.7356" style="stop-color:#2D66A4"/>
		<stop  offset="0.9331" style="stop-color:#223E82"/>
		<stop  offset="1" style="stop-color:#263471"/>
	</linearGradient>
	<circle class="st7" cx="772.4" cy="435.3" r="33"/>
	<circle class="st8" cx="772.4" cy="435.3" r="14.1"/>
</g>
<linearGradient id="SVGID_9_" gradientUnits="userSpaceOnUse" x1="979.5233" y1="189.3642" x2="311.2992" y2="850.2597">
	<stop  offset="0" style="stop-color:#3FAADE"/>
	<stop  offset="0.1672" style="stop-color:#3FA6DA"/>
	<stop  offset="0.35" style="stop-color:#3B97CF"/>
	<stop  offset="0.5403" style="stop-color:#3483BE"/>
	<stop  offset="0.7356" style="stop-color:#2D66A4"/>
	<stop  offset="0.9331" style="stop-color:#223E82"/>
	<stop  offset="1" style="stop-color:#263471"/>
</linearGradient>
<path class="st9" d="M784.9,462.6L784.9,462.6 M739.7,428.6c-5.3,0-9.7,0-15,0c-9.8-0.1-16.1,2.7-22.5,10.5
	c-3.1,3.8-6.1,7.1-9.4,10.8l0,0h-58.3c0,0-0.1,0-0.1,0.1v16.8c0,0,0,0.1,0.1,0.1h66.7l0,0c6.2-7.1,12.6-14.4,18.9-21.4l0,0h20.3
	 M784.2,439.7L784.2,439.7"/>
<linearGradient id="SVGID_10_" gradientUnits="userSpaceOnUse" x1="1041.65" y1="188.8472" x2="305.864" y2="916.5636">
	<stop  offset="0" style="stop-color:#3FAADE"/>
	<stop  offset="0.1672" style="stop-color:#3FA6DA"/>
	<stop  offset="0.35" style="stop-color:#3B97CF"/>
	<stop  offset="0.5403" style="stop-color:#3483BE"/>
	<stop  offset="0.7356" style="stop-color:#2D66A4"/>
	<stop  offset="0.9331" style="stop-color:#223E82"/>
	<stop  offset="1" style="stop-color:#263471"/>
</linearGradient>
<linearGradient id="SVGID_11_" gradientUnits="userSpaceOnUse" x1="378.589" y1="842.7664" x2="382.0657" y2="842.7664">
	<stop  offset="0" style="stop-color:#FFFFFF"/>
	<stop  offset="1" style="stop-color:#FFFFFF"/>
</linearGradient>
<path class="st10" d="M381.6,843c-0.2-0.4-0.3-0.7-0.5-1.1c-0.3-0.1-0.7-0.1-1-0.2c0.5,0.5,1,0.9,1.5,1.4
	C381.6,843.1,381.6,843,381.6,843z"/>
<linearGradient id="SVGID_12_" gradientUnits="userSpaceOnUse" x1="810.8063" y1="741.087" x2="716.2565" y2="834.6">
	<stop  offset="0" style="stop-color:#3FAADE"/>
	<stop  offset="0.1672" style="stop-color:#3FA6DA"/>
	<stop  offset="0.35" style="stop-color:#3B97CF"/>
	<stop  offset="0.5403" style="stop-color:#3483BE"/>
	<stop  offset="0.7356" style="stop-color:#2D66A4"/>
	<stop  offset="0.9331" style="stop-color:#223E82"/>
	<stop  offset="1" style="stop-color:#263471"/>
</linearGradient>
<path class="st11" d="M763.5,787.8C763.5,787.9,763.5,787.9,763.5,787.8C763.6,787.9,763.6,787.9,763.5,787.8
	C763.6,787.9,763.5,787.8,763.5,787.8z"/>
<linearGradient id="SVGID_13_" gradientUnits="userSpaceOnUse" x1="1076.5237" y1="224.1077" x2="340.7378" y2="951.824">
	<stop  offset="0" style="stop-color:#3FAADE"/>
	<stop  offset="0.1672" style="stop-color:#3FA6DA"/>
	<stop  offset="0.35" style="stop-color:#3B97CF"/>
	<stop  offset="0.5403" style="stop-color:#3483BE"/>
	<stop  offset="0.7356" style="stop-color:#2D66A4"/>
	<stop  offset="0.9331" style="stop-color:#223E82"/>
	<stop  offset="1" style="stop-color:#263471"/>
</linearGradient>
<path class="st12" d="M634.5,540.7v16.6c24.7,0,90.7-0.5,115.1-0.4c3.5,0,5.9-1.1,8.2-3.6c14.3-15.2,28.7-30.4,43-45.5h47
	c8.6,16.5,22,23.5,37.4,19.8c14-3.4,23.9-15.9,23.8-30.2c-0.1-13.8-10.6-27.2-23.8-30.6c-12.6-3.3-32.1,2-38.6,24.2h-53.2
	c-15.3,16.2-30.6,32.3-46,48.6C723.7,539.6,658.3,540.7,634.5,540.7z M877.3,482.6c8.3-0.1,15,6.5,15,14.8c0,7.9-6.7,14.6-14.7,14.7
	c-8.1,0.1-14.9-6.9-14.8-15C862.8,489.5,869.7,482.7,877.3,482.6z"/>
<g>
	
		<linearGradient id="SVGID_14_" gradientUnits="userSpaceOnUse" x1="920.7125" y1="575.0189" x2="774.6074" y2="719.5214" gradientTransform="matrix(1 0 0 -1 0 1000)">
		<stop  offset="0" style="stop-color:#3FAADE"/>
		<stop  offset="0.1672" style="stop-color:#3FA6DA"/>
		<stop  offset="0.35" style="stop-color:#3B97CF"/>
		<stop  offset="0.5403" style="stop-color:#3483BE"/>
		<stop  offset="0.7356" style="stop-color:#2D66A4"/>
		<stop  offset="0.9331" style="stop-color:#223E82"/>
		<stop  offset="1" style="stop-color:#263471"/>
	</linearGradient>
	<circle class="st13" cx="835.8" cy="341" r="33"/>
	<circle class="st8" cx="835.8" cy="341" r="14.1"/>
</g>
<g>
	
		<linearGradient id="SVGID_15_" gradientUnits="userSpaceOnUse" x1="962.4184" y1="418.7129" x2="816.3135" y2="563.2155" gradientTransform="matrix(1 0 0 -1 0 1000)">
		<stop  offset="0" style="stop-color:#3FAADE"/>
		<stop  offset="0.1672" style="stop-color:#3FA6DA"/>
		<stop  offset="0.35" style="stop-color:#3B97CF"/>
		<stop  offset="0.5403" style="stop-color:#3483BE"/>
		<stop  offset="0.7356" style="stop-color:#2D66A4"/>
		<stop  offset="0.9331" style="stop-color:#223E82"/>
		<stop  offset="1" style="stop-color:#263471"/>
	</linearGradient>
	<circle class="st14" cx="877.5" cy="497.3" r="33"/>
	<circle class="st8" cx="877.5" cy="497.3" r="14.1"/>
</g>
<g>
	
		<linearGradient id="SVGID_16_" gradientUnits="userSpaceOnUse" x1="894.392" y1="302.539" x2="748.2872" y2="447.0415" gradientTransform="matrix(1 0 0 -1 0 1000)">
		<stop  offset="0" style="stop-color:#3FAADE"/>
		<stop  offset="0.1672" style="stop-color:#3FA6DA"/>
		<stop  offset="0.35" style="stop-color:#3B97CF"/>
		<stop  offset="0.5403" style="stop-color:#3483BE"/>
		<stop  offset="0.7356" style="stop-color:#2D66A4"/>
		<stop  offset="0.9331" style="stop-color:#223E82"/>
		<stop  offset="1" style="stop-color:#263471"/>
	</linearGradient>
	<circle class="st15" cx="809.5" cy="613.5" r="33"/>
	<circle class="st8" cx="809.5" cy="613.5" r="14.1"/>
</g>
</svg>
