<?xml version="1.0" encoding="utf-8"?>
<!-- Generator: Adobe Illustrator 25.2.0, SVG Export Plug-In . SVG Version: 6.00 Build 0)  -->
<svg version="1.1" id="Layer_1" xmlns="http://www.w3.org/2000/svg" xmlns:xlink="http://www.w3.org/1999/xlink" x="0px" y="0px"
	 viewBox="170 200 650 650" style="enable-background:new 0 0 1000 1000;" xml:space="preserve">
<style type="text/css">
	.st0{fill:url(#SVGID_1_);}
	.st1{fill:url(#SVGID_2_);}
	.st2{fill:url(#SVGID_3_);}
	.st3{fill:url(#SVGID_4_);}
	.st4{fill:url(#SVGID_5_);}
	.st5{fill:url(#SVGID_6_);}
	.st6{fill:url(#SVGID_7_);}
	.st7{fill:url(#SVGID_8_);}
	.st8{fill:#FFFFFF;}
	.st9{fill:url(#SVGID_9_);}
	.st10{fill:url(#SVGID_10_);stroke:url(#SVGID_11_);}
	.st11{fill:url(#SVGID_12_);}
	.st12{fill:url(#SVGID_13_);}
	.st13{fill:url(#SVGID_14_);}
	.st14{fill:url(#SVGID_15_);}
	.st15{fill:url(#SVGID_16_);}
	.st16{fill:url(#SVGID_17_);}
	.st17{fill:url(#SVGID_18_);}
	.st18{fill:url(#SVGID_19_);}
	.st19{fill:url(#SVGID_20_);}
	.st20{fill:url(#SVGID_21_);}
	.st21{fill:url(#SVGID_22_);}
	.st22{fill:url(#SVGID_23_);}
	.st23{fill:url(#SVGID_24_);}
	.st24{fill:url(#SVGID_25_);}
	.st25{fill:#3883B2;}
	.st26{display:none;}
	.st27{display:inline;fill:#3883B2;}
</style>
<g>
	
		<linearGradient id="SVGID_1_" gradientUnits="userSpaceOnUse" x1="530.5835" y1="705.4487" x2="428.4464" y2="604.4318" gradientTransform="matrix(1 0 0 -1 0 1000)">
		<stop  offset="0" style="stop-color:#41ABDF"/>
		<stop  offset="0.1672" style="stop-color:#40A7DB"/>
		<stop  offset="0.35" style="stop-color:#3C99D0"/>
		<stop  offset="0.5403" style="stop-color:#3585BF"/>
		<stop  offset="0.7356" style="stop-color:#2E66A6"/>
		<stop  offset="0.9331" style="stop-color:#233F83"/>
		<stop  offset="1" style="stop-color:#263471"/>
	</linearGradient>
	<path class="st0" d="M497.7,402.3h-53.6c-4.1,0-7.3-3.3-7.3-7.3v-82.6c0-4.1,3.3-7.3,7.3-7.3h53.6c4.1,0,7.3,3.3,7.3,7.3v82.6
		C505,399,501.7,402.3,497.7,402.3z"/>
	
		<linearGradient id="SVGID_2_" gradientUnits="userSpaceOnUse" x1="668.046" y1="168.0527" x2="313.2303" y2="518.977" gradientTransform="matrix(1 0 0 1 0 2)">
		<stop  offset="0" style="stop-color:#41ABDF"/>
		<stop  offset="0.1672" style="stop-color:#40A7DB"/>
		<stop  offset="0.35" style="stop-color:#3C99D0"/>
		<stop  offset="0.5403" style="stop-color:#3585BF"/>
		<stop  offset="0.7356" style="stop-color:#2E66A6"/>
		<stop  offset="0.9331" style="stop-color:#233F83"/>
		<stop  offset="1" style="stop-color:#263471"/>
	</linearGradient>
	<path class="st1" d="M313.3,500.2c8.1-8.2,15.9-16,23.7-23.9l0.1-0.1c0.4-0.3,3.8-3.4,3.9-3.5c3.5-3.4,3.5-3.4,7.1-6.8l0.1-0.1
		c1.1-1,2.3-1.9,3.2-3c2.3-2.6,4.8-5,7.3-7.3c0.8-0.7,1.5-1.4,2.3-2.1c3.8-3.7,7.6-7.3,11.3-11c7.3-7.3,27.4-24.7,27.9-24.2
		c7.8,6.3,15.6,12.7,23.3,19.1c7,5.8,14.1,11.5,21.7,16.5c3.7,2.5,7.3,2.7,11.2,0.2c5.2-3.3,10.1-6.9,14.9-10.8l0,0
		c0.2-0.1,0.4-0.3,0.5-0.4l-0.1,0.1c0.2-0.1,0.3-0.3,0.5-0.4l0,0c0.6-0.5,1.3-1,1.8-1.5c9.4-7.5,18.4-15.6,26.7-24.3
		c10.5-10.2,20.1-21.2,28.8-33v-0.1c0.6-0.8,1.2-1.6,1.8-2.3c7.2-9.6,12.9-17.1,18.4-27.7l0.1-0.2c0.2-0.4,1.1-2.1,1.1-2.1
		c0.1-0.2,0.7-1.1,0.9-1.4l0.1-0.1c0.3-0.4,1.1-2.1,1.3-2.3c1.6-3,2-3.6,3.7-6.7l0,0c0.3-0.6,0.6-1.2,1-1.8c0.5-0.8,1-1.5,1.4-2.3
		c4.6-9.3,8.6-18.9,11.9-28.7c1.8-5,3.5-10,4.6-15.3c10.1,2.8,20.1,5.5,30.7,8.4c-4.6-11.5-8.9-22.4-13.2-33.3
		c-6.9-17.9-13.7-35.7-20.8-53.9c-6.5,5.2-12.6,10.1-18.7,15c-0.4,0.3-0.8,0.6-1.1,1c-0.2,0.2-0.4,0.4-0.6,0.6
		c-12.7,10.2-25.3,20.3-37.9,30.5c-4.9,4-9.8,8-15.2,12.4c10.8,2.8,20.9,5.4,31,8c0.1,0-0.7,0.1-0.4,0.3c-0.3-0.1-0.2-0.5,0.4-0.3
		c-0.1,0.6-0.3,1.1-0.4,1.8c-4.3,15-8.6,28-15.8,40.9c-2,3.8-2.8,5.4-3.9,7.5c-1.3,2.4-2.6,4.6-2.7,4.8c-2.3,4.2-3.9,6.2-4.6,7.4
		c-1.2,1.8-1.8,2.8-3,4.2c-1,1.3-1.9,2.5-4.2,5.6c-2,2.7-3,4.1-4.6,6c-2.5,3-3,3.4-4.2,4.9c-1.2,1.5-1.8,2.2-2.1,2.4
		c-1,1-1.1,1.2-1.6,2c-0.4,0.6-1,1.2-1.6,2c-0.9,1.1-1.3,1.3-2.2,2.4c-0.4,0.6-1.1,1.3-1.6,1.8c-1.1,1.1-0.9,1.1-2,2.2
		c-2.3,2.2-3.2,3-4.2,3.9c-1.9,1.8-3.5,3.7-4.5,4.5c-0.6,0.5-2.9,2.4-4.2,3.6c-3.5,3.2-4.3,4.5-6.8,6.3c-0.6,0.4-4.4,4-5,4.4
		c-0.2,0.1-7.7-5.2-8.7-6.1c-0.3-0.2-1.3-1-1.6-1.1c-1-0.8-1.6-1.1-2.6-2c-2.9-2.3-4.2-3.4-7.7-6.4c-7.9-6.4-13.9-11.3-25-20.6
		c-3.2-2.5-6.8-3-10.6-1.2l0,0c-0.3,0.2-0.7,0.4-1,0.6l0.1-0.1c-0.3,0.2-0.6,0.4-0.9,0.5c-0.2,0.1-2,1.5-2.3,1.8
		c-0.4,0.5-1,1-1.4,1.5c-0.1,0.1-0.3,0.3-0.4,0.4c-0.6,0.6-1.3,1.2-2,1.8c-0.1,0.1-0.3,0.3-0.4,0.4c-3.4,3.2-6.7,6.5-10.1,9.7l0,0
		c-1.5,1.5-3,2.9-4.6,4.4c-0.6,0.6-1.3,1.2-1.9,1.8h0.1l-0.1,0.1c-0.1,0.1-0.3,0.3-0.4,0.4l0,0c-0.2,0.3-0.4,0.4-0.7,0.7l0,0
		c-0.1,0.1-0.3,0.3-0.4,0.4c-0.3,0.3-0.6,0.6-0.9,0.9c-8.5,8.2-17,16.4-25.5,24.6c-4.2,4.1-8.5,8.2-12.7,12.3
		c-5.3,5-10.5,10-15.6,14.9 M337,476.2L337,476.2L337,476.2L337,476.2z"/>
	
		<linearGradient id="SVGID_3_" gradientUnits="userSpaceOnUse" x1="750.7418" y1="251.6655" x2="395.9262" y2="602.5898" gradientTransform="matrix(1 0 0 1 0 2)">
		<stop  offset="0" style="stop-color:#41ABDF"/>
		<stop  offset="0.1672" style="stop-color:#40A7DB"/>
		<stop  offset="0.35" style="stop-color:#3C99D0"/>
		<stop  offset="0.5403" style="stop-color:#3585BF"/>
		<stop  offset="0.7356" style="stop-color:#2E66A6"/>
		<stop  offset="0.9331" style="stop-color:#233F83"/>
		<stop  offset="1" style="stop-color:#263471"/>
	</linearGradient>
	<path class="st2" d="M441.4,476.1c-15.4-8-28.1-19.4-41.7-30.9c-6,6.1-11.9,12.3-17.8,18.4c-4.6,4.4-9.1,8.8-13.6,13.2
		c0.2,0.4,0.4,0.7,0.6,1.1c-0.1-0.4-0.3-0.8-0.6-1.1c-5.5,5.3-11,10.6-16.5,16c-6.7,6.4-13.3,12.8-19.9,19.2
		c0.1,0.2,0.3,0.4,0.4,0.6c-0.1-0.2-0.3-0.4-0.4-0.6c-5.8,6.3-11.5,12.6-18.2,19.9c0,2.9,0,7.7,0,12.5c0,18.2-0.1,36.5,0,54.7
		c0,3,0.8,6,2.2,8.7c4.2,7.8,10.8,12.4,19.5,12.5c37.4,0.2,74.8,0.1,112.2,0.1c0.4,0,0.9,0,1.4,0c3.9,0,7.9,0,11.8,0
		c9.4,0,18.8,0,28.2,0l0,0c13,0.1,26,0.1,39,0.1c1.6,0,3.1-0.3,4.7-0.5c6-0.7,10.1-4.3,13.7-8.6c4.1-4.9,5-10.6,4.5-16.8
		c0-2.9,0-5.8,0-8.6c0-5.3,0-10.6,0-16c0-7.9,0-15.8,0-23.7c0-7.3,0-14.6,0-21.9c0-8.4,0-16.7,0-25c0-3.2,0-6.3,0-9.6
		c0-3.7,0-7.3,0-11c0-1.8,0-3.6,0-5.4c0-0.4,0-1,0-1.4c0-7.4,0-14.9,0-22.3c0-2.6,0-5.1,0-7.7c0-3.5,0-7,0-10.5
		c0-13.4,0-26.7,0-41.2c-7.1,11.3-15.1,20.7-22.8,30.1c-0.2,0.2-0.3,0.4-0.5,0.6c0,0,0,0,0-0.1c-6.5,6.8-13.1,13.6-19.5,20.4
		l-0.4,0.5c-0.1,0.1-0.1,0.1-0.2,0.2c-0.3,0.2-0.5,0.4-0.8,0.6l0,0c-5.3,4.6-10.5,9.2-15.8,13.7c-0.2,0.2-0.4,0.4-0.6,0.6v-0.1
		c-7.6,5.7-14.3,10.6-22.5,15.6c-4.2,2.5-1.9,1.3-3,1.8c-0.3,0.1-1.8,1-2.1,1.1C455.7,478.9,449,480.6,441.4,476.1 M449.9,496.1
		L449.9,496.1L449.9,496.1z M383.3,542.3c9.9,0,20,0,30.1,0v11.8c-4.2,0-8.5,0-12.7,0c-5.7,0-11.4,0-17.3,0 M383.1,543L383.1,543
		C383,543,383,543,383.1,543z M413.5,566.3c0.1,0.1,0.1,0.1,0.2,0.1C413.7,566.3,413.6,566.3,413.5,566.3c0,3.7,0,7.4,0,11.5
		c-7.9,0-15.6,0-23.4,0c-2.3,0-4.6,0-7.3,0c0-4.1,0-7.8,0-11.5c-0.1,0.2-0.1,0.4-0.2,0.6c0.1-0.2,0.1-0.4,0.2-0.6 M461.8,497v9.6
		c6.3,0.8,12.4,2.2,17.9,5.2c1.1,0.6,2.7,0.9,2.5,2.8c-0.1,0.4-0.3,0.8-0.4,1.1c0,0.2,0,0.4,0,0.6c0-0.2,0-0.4,0-0.6l0,0l0,0l0,0
		l0,0c-1.3,2.8-2.5,5.6-3.9,8.4c-8.7-4.1-17.6-7.3-27.4-4.8c-3.7,0.8-7,2.3-8.2,6.3c-1.5,4.8,1.1,8.7,7.2,11
		c8.6,3.1,17.7,4.6,25.8,8.9h0.1c0.2,0.1,0.4,0.2,0.6,0.3l-0.1-0.1c0.2,0.1,0.4,0.3,0.6,0.4h0.1l0,0c0.4,0.3,0.9,0.6,1.3,0.9l0,0
		c0.3,0.2,0.6,0.4,0.8,0.6c0.1,0.1,0.3,0.2,0.4,0.3c4.4,3.2,7.1,10.8,7,13.6c-0.3,3.9-0.3,5.7-0.9,7.3c-1.8,5.2-4.8,9.9-9.6,12.6
		c-3.5,2-7.6,3.1-11.9,4c-0.8,0.2-2.2-0.1-1.7,1.5c0,3.5,0,7.1,0,11c-3.5,0-6.8,0-10.1,0c-0.1-0.1-0.3-0.1-0.4,0
		c-1.8-0.2-0.5-1.8-1.2-2.5l0,0v-0.1c0-0.5,0.1-1,0.1-1.5l0,0c0-1.5,0-3.1,0-4.6c-0.1-0.6-0.1-1.1-0.2-1.6c0.1-0.1,0.1-0.3,0.1-0.4
		c0.1-0.1,0.1-0.2,0.1-0.3c0-0.1-0.1-0.1-0.1-0.2c-0.3-0.3-0.4-0.4-0.7-0.7c-0.4-0.1-0.9-0.1-1.3-0.1l0,0
		c-8.1-1.2-15.7-3.6-22.6-8.3c0.4-1.4,0.8-2.6,1.1-3.8c-0.5,0-0.8,0.1-1.1,0.3c0.3-0.2,0.6-0.3,1.1-0.3c1.3-2.5,2.5-4.9,3.8-7.4
		c4.2,2.2,8.1,4.9,12.9,5.7l0,0c6.5,2.1,13.2,2.7,19.9,1c4.4-1.1,7.3-3.5,7.9-8.2c0.6-4.8-2.5-7-6.2-8.7c-6.4-3-13.4-4.2-20.1-6
		c-6.4-2.7-12.7-5.4-16-12c-0.6-1.2-0.6-1.5-1.1-2.9c-0.1-0.4-0.2-0.8-0.3-1.2c-0.1-0.6-0.1-0.3-0.2-0.8c-0.7-4.9-0.2-7.9,0.8-10.6
		c0.6-1.6,1.5-3.6,2-4.4c0.8-1.5,1.4-2.4,1.6-2.9c0.1-0.1,0.2-0.3,0.3-0.4c0.1-0.1,0.1-0.2,0.3-0.3c0.3-0.3,0.4-0.4,0.7-0.8
		c0,0,0.4-0.4,0.8-0.8l0.4-0.4c0.1-0.1,0.2-0.2,0.3-0.3l0.3-0.2c0.3-0.3,0.4-0.4,0.8-0.5l0.4-0.3c0.5-0.4,1.1-0.7,1.5-1
		c6.9-3.6,7.5-3.3,12.5-4.1l0.2-0.1h0.1v-0.1v-0.1c0-0.1,0-0.1,0-0.2c0-0.3,0-0.6,0-0.9c0-0.1,0-0.3,0-0.4c0-2.6,0.1-5.2,0.1-7.7
		l0,0c0-0.3,0-0.6,0-0.9c3.9-1,7.8-1,11.7,0l0,0C461.8,496.5,461.8,496.8,461.8,497 M477.3,546.5c-0.1-0.1-0.1-0.1-0.3-0.1
		C477.1,546.4,477.2,546.5,477.3,546.5z M446.4,587c0.1-0.1,0.3-0.1,0.4-0.1s0.2,0,0.3,0c-0.1,0-0.2,0-0.3,0
		C446.6,586.9,446.5,587,446.4,587z M446.2,587.2c0.1-0.1,0.1-0.1,0.1-0.1C446.2,587.1,446.2,587.1,446.2,587.2z M449.3,592.1
		c-0.1-0.2-0.1-0.4-0.1-0.6C449.3,591.8,449.3,592,449.3,592.1z"/>
	
		<linearGradient id="SVGID_4_" gradientUnits="userSpaceOnUse" x1="742.3416" y1="243.1722" x2="387.526" y2="594.0964" gradientTransform="matrix(1 0 0 1 0 2)">
		<stop  offset="0" style="stop-color:#41ABDF"/>
		<stop  offset="0.1672" style="stop-color:#40A7DB"/>
		<stop  offset="0.35" style="stop-color:#3C99D0"/>
		<stop  offset="0.5403" style="stop-color:#3585BF"/>
		<stop  offset="0.7356" style="stop-color:#2E66A6"/>
		<stop  offset="0.9331" style="stop-color:#233F83"/>
		<stop  offset="1" style="stop-color:#263471"/>
	</linearGradient>
	<path class="st3" d="M572,365.2c0,2.9,0,5.6,0,8.4c11.9,0,23.6,0,35.4,0.1c1.6,0,2.9-0.6,3.9-1.7c6.9-7.3,13.8-14.6,20.7-22
		c7.7,0,15.2,0,22.7,0c4.1,7.9,10.6,11.3,18,9.6c6.8-1.6,11.5-7.7,11.5-14.6c-0.1-6.7-5.1-13.1-11.5-14.8c-6.1-1.6-15.5,1-18.6,11.7
		c-8.5,0-17.1,0-25.7,0c-7.4,7.8-14.8,15.6-22.2,23.4C594.9,365.2,583.5,365.2,572,365.2z M669,337.7c4-0.1,7.2,3.1,7.2,7.2
		c0,3.8-3.2,7-7.1,7.1s-7.2-3.3-7.2-7.3C662,341.1,665.3,337.8,669,337.7z"/>
	
		<linearGradient id="SVGID_5_" gradientUnits="userSpaceOnUse" x1="811.8478" y1="311.3379" x2="455.3849" y2="663.8912" gradientTransform="matrix(1 0 0 1 0 2)">
		<stop  offset="0" style="stop-color:#41ABDF"/>
		<stop  offset="0.1672" style="stop-color:#40A7DB"/>
		<stop  offset="0.35" style="stop-color:#3C99D0"/>
		<stop  offset="0.5403" style="stop-color:#3585BF"/>
		<stop  offset="0.7356" style="stop-color:#2E66A6"/>
		<stop  offset="0.9331" style="stop-color:#233F83"/>
		<stop  offset="1" style="stop-color:#263471"/>
	</linearGradient>
	<path class="st4" d="M604,458.6c-0.4,0-0.8,0-1.1,0c-2.2,0-4.4,0-6.7,0 M609.9,458.6c-7.4,0-1.8,0-2.1,0c-1.3,0.1-2.6,0-3.9,0
		 M596.3,458.6h-24.5l0,0c0.1,1.3-0.1,12.4,0,13.7h1.8h0.2h0.2c9.3,0,18.6-0.1,28-0.1c0.2,0,0.4,0,0.6,0c0.8,0,1.7,0,2.6,0
		c2.3,0,4.6,0,6.5,0c0.5,0,1,0.2,1.4,0.6c3.3,3.1,6.3,5.9,9.6,9c0.4,0.3,0.9,0.6,1.4,0.6h18.2c0.6,1,1,2,1.5,2.9
		c0.6,1.2-0.1,2.7-1.4,2.9l-0.4,0.1l0,0c-1.7,0-3.4-0.1-5.1-0.1l0,0c-0.1-0.1-0.3-0.1-0.4,0c0.1,0,0.1,0,0.2,0c-0.1,0-0.1,0-0.2,0
		c-2,0-3.9,0-5.9,0c-0.3,0-0.6,0.1-0.8,0.2c-0.1,0-0.1,0.1-0.1,0.1c0.1-0.1,0.3-0.1,0.4-0.3c-0.6,0-1.1,0-1.7,0c-0.3,0-0.7,0-1,0
		c-0.6,0-1.1,0-1.7,0c-0.5,0-1,0-1.5,0c-1.1,0-2.3,0-3.5,0c-0.3,0-0.7-0.1-1-0.3c-3.2-1.9-4.8-5.5-7.5-7.6c-0.4-0.3-0.8-0.4-1.2-0.4
		h-39v7.8h31c0.5,0,1,0.2,1.4,0.6c6.3,6,12.1,11.5,18.1,17.1c0.4,0.4,1.1,0.6,1.8,0.5c7.9-1.5,14.8,1.3,17.9,7.6
		c2.5,5.1,2,10.2-1.3,14.6c-4.1,5.7-9.9,7-16.6,5.6c-3.5-0.8-5.9-3-8.4-5.4c-1.1-1-2.9-0.5-3.3,0.9c-1.4,4.4-3.4,8.4-6.1,12
		c-0.1,0.2-0.3,0.4-0.4,0.6v-0.1c-0.1,0.2-0.3,0.3-0.4,0.5c-0.2,0.2-0.4,0.4-0.6,0.6c-3.9,3.7-8.1,6.8-13.1,8.9l0,0
		c0,0.1,0,0.1,0,0.2c0-0.1,0-0.1,0-0.2c-0.4,0.1-0.9,0.3-1.3,0.4c0.1,0.1,0.1,0.1,0.1,0.2c-0.1-0.1-0.1-0.1-0.1-0.2
		c-4.5,1.6-8.3,1.8-9.6,1.8l-0.1-0.1l-0.1,0.1l0,0c-1.8-0.1-3.7-0.2-5.6-0.3l0,0h-3.3v46.1c6.5,0.5,12.9-0.1,19.2-0.3
		c2.9,0.1,2.9,0.1,2.7-3c0.4-4.5,0.9-9,1.4-13.5c0.1-0.9,0.8-1.6,1.6-1.8c2.2-0.4,4.2-1.2,6.2-2.2c1.8-0.8,3.7-1.5,5.6-2.3
		c0.7-0.3,1.5-0.2,2.1,0.3c4.1,3.4,8,6.8,12.1,10.1c0.6,0.6,1.6,0.6,2.3,0.2c3.9-2.3,7.3-4.8,10.4-7.7c2.3-1.8,4.4-3.8,6.4-6.3
		c0.6-0.7,0.6-1.6,0.1-2.3c-1.9-2.9-3.7-5.6-5.6-8.5c0-0.1,0-0.2-0.1-0.2c-0.1-0.2-0.3-0.4-0.4-0.5l0.1,0.1
		c-0.1-0.2-0.3-0.4-0.4-0.6l0.1,0.1c-0.2-0.3-0.4-0.6-0.6-0.9c-0.1-0.2-0.3-0.4-0.4-0.6l0.1,0.1c-0.1-0.2-0.3-0.4-0.4-0.5v-0.1
		c-0.3-0.5-0.7-1.1-1-1.6c-0.4-0.8,0.1-1.4,0.4-2c1.8-3.2,3.6-6.4,5.4-9.6c0.4-0.8,0.9-1.6,1.5-2.5c2.9,0.2,5.8,0.4,8.8,0.5
		c2.7,0.1,5.4,0.1,8.4,0c0.7,0,1.3-0.3,1.6-0.9c2.4-3.8,5.2-15,5.1-21.5c0-0.8-0.6-1.6-1.3-1.8c-4.6-1.6-9.1-3.2-13.7-4.9
		c-0.7-0.3-1.1-0.8-1.3-1.5c-0.7-3.6-1.4-7.2-2-10.7c-0.2-1.3-1.4-2.5-0.3-3.9c2.7-2.1,5.4-4.1,8.2-6.3c10.5,0.7,17-6.6,17.7-14.1
		c0.6-6.3-3.9-13.4-10.8-15.6c-7.3-2.3-14.9,0.4-19,8.9c-0.3,0.7-1,1.1-1.8,1.1h-13.6c-0.6,0-1.1-0.3-1.5-0.6
		c-4.3-4.6-7.7-8.9-12.2-13.7h-2.9 M656.1,484.7c-4.3-0.3-7.3-3.7-7.1-8.1c-0.1-3.8,4.6-6.9,7.7-6.7c4.2,0.3,7.2,3.5,7,7.7
		C663.6,481.7,660.1,485,656.1,484.7z"/>
	
		<linearGradient id="SVGID_6_" gradientUnits="userSpaceOnUse" x1="807.4048" y1="308.9567" x2="452.5892" y2="659.8811" gradientTransform="matrix(1 0 0 1 0 2)">
		<stop  offset="0" style="stop-color:#41ABDF"/>
		<stop  offset="0.1672" style="stop-color:#40A7DB"/>
		<stop  offset="0.35" style="stop-color:#3C99D0"/>
		<stop  offset="0.5403" style="stop-color:#3585BF"/>
		<stop  offset="0.7356" style="stop-color:#2E66A6"/>
		<stop  offset="0.9331" style="stop-color:#233F83"/>
		<stop  offset="1" style="stop-color:#263471"/>
	</linearGradient>
	<path class="st5" d="M622.5,525.4c3.3,2.9,8.5,2.3,11.2-1.1c2.6-3.4,2.2-7.9-1.1-10.3c-3.7-2.6-7.2-2.3-10.6,1.3
		c-3.8-4.1-7.5-8-10.8-11.7h-40.5v7.9h36.6C612.5,516.4,617.5,520.9,622.5,525.4z"/>
	
		<linearGradient id="SVGID_7_" gradientUnits="userSpaceOnUse" x1="759.3538" y1="260.373" x2="404.5382" y2="611.2973" gradientTransform="matrix(1 0 0 1 0 2)">
		<stop  offset="0" style="stop-color:#41ABDF"/>
		<stop  offset="0.1672" style="stop-color:#40A7DB"/>
		<stop  offset="0.35" style="stop-color:#3C99D0"/>
		<stop  offset="0.5403" style="stop-color:#3585BF"/>
		<stop  offset="0.7356" style="stop-color:#2E66A6"/>
		<stop  offset="0.9331" style="stop-color:#233F83"/>
		<stop  offset="1" style="stop-color:#263471"/>
	</linearGradient>
	<path class="st6" d="M571.4,429.1H619v-8.6h-47.6V429.1z"/>
	<g>
		
			<linearGradient id="SVGID_8_" gradientUnits="userSpaceOnUse" x1="679.4463" y1="569.2305" x2="608.9907" y2="638.9135" gradientTransform="matrix(1 0 0 -1 0 1000)">
			<stop  offset="0" style="stop-color:#41ABDF"/>
			<stop  offset="0.1672" style="stop-color:#40A7DB"/>
			<stop  offset="0.35" style="stop-color:#3C99D0"/>
			<stop  offset="0.5403" style="stop-color:#3585BF"/>
			<stop  offset="0.7356" style="stop-color:#2E66A6"/>
			<stop  offset="0.9331" style="stop-color:#233F83"/>
			<stop  offset="1" style="stop-color:#263471"/>
		</linearGradient>
		<circle class="st7" cx="638.5" cy="390.3" r="15.9"/>
		<circle class="st8" cx="638.5" cy="390.3" r="6.8"/>
	</g>
	
		<linearGradient id="SVGID_9_" gradientUnits="userSpaceOnUse" x1="738.3902" y1="269.7175" x2="416.1548" y2="588.4191" gradientTransform="matrix(1 0 0 1 0 2)">
		<stop  offset="0" style="stop-color:#41ABDF"/>
		<stop  offset="0.1672" style="stop-color:#40A7DB"/>
		<stop  offset="0.35" style="stop-color:#3C99D0"/>
		<stop  offset="0.5403" style="stop-color:#3585BF"/>
		<stop  offset="0.7356" style="stop-color:#2E66A6"/>
		<stop  offset="0.9331" style="stop-color:#233F83"/>
		<stop  offset="1" style="stop-color:#263471"/>
	</linearGradient>
	<path class="st9" d="M644.5,403.5L644.5,403.5 M622.7,387.1c-2.6,0-4.7,0-7.2,0c-4.8-0.1-7.7,1.3-10.8,5.1
		c-1.5,1.8-2.9,3.4-4.5,5.2l0,0h-28.1l0,0v8.1l0,0h32.2l0,0c3-3.4,6.1-6.9,9.1-10.3l0,0h9.8 M644.2,392.4L644.2,392.4"/>
	
		<linearGradient id="SVGID_10_" gradientUnits="userSpaceOnUse" x1="768.3241" y1="269.4427" x2="413.5085" y2="620.3671" gradientTransform="matrix(1 0 0 1 0 2)">
		<stop  offset="0" style="stop-color:#41ABDF"/>
		<stop  offset="0.1672" style="stop-color:#40A7DB"/>
		<stop  offset="0.35" style="stop-color:#3C99D0"/>
		<stop  offset="0.5403" style="stop-color:#3585BF"/>
		<stop  offset="0.7356" style="stop-color:#2E66A6"/>
		<stop  offset="0.9331" style="stop-color:#233F83"/>
		<stop  offset="1" style="stop-color:#263471"/>
	</linearGradient>
	
		<linearGradient id="SVGID_11_" gradientUnits="userSpaceOnUse" x1="447.866" y1="584.7525" x2="450.5226" y2="584.7525" gradientTransform="matrix(1 0 0 1 0 2)">
		<stop  offset="0" style="stop-color:#FFFFFF"/>
		<stop  offset="1" style="stop-color:#FFFFFF"/>
	</linearGradient>
	<path class="st10" d="M450,586.9c-0.1-0.2-0.1-0.4-0.3-0.5c-0.1,0-0.3-0.1-0.5-0.1c0.3,0.3,0.4,0.4,0.7,0.7
		C450,586.9,450,586.9,450,586.9z"/>
	
		<linearGradient id="SVGID_12_" gradientUnits="userSpaceOnUse" x1="657.0302" y1="535.7728" x2="611.4357" y2="580.8673" gradientTransform="matrix(1 0 0 1 0 2)">
		<stop  offset="0" style="stop-color:#41ABDF"/>
		<stop  offset="0.1672" style="stop-color:#40A7DB"/>
		<stop  offset="0.35" style="stop-color:#3C99D0"/>
		<stop  offset="0.5403" style="stop-color:#3585BF"/>
		<stop  offset="0.7356" style="stop-color:#2E66A6"/>
		<stop  offset="0.9331" style="stop-color:#233F83"/>
		<stop  offset="1" style="stop-color:#263471"/>
	</linearGradient>
	<path class="st11" d="M634.2,560.3L634.2,560.3C634.3,560.3,634.3,560.3,634.2,560.3C634.3,560.3,634.2,560.3,634.2,560.3z"/>
	
		<linearGradient id="SVGID_13_" gradientUnits="userSpaceOnUse" x1="785.1268" y1="286.4317" x2="430.3112" y2="637.356" gradientTransform="matrix(1 0 0 1 0 2)">
		<stop  offset="0" style="stop-color:#41ABDF"/>
		<stop  offset="0.1672" style="stop-color:#40A7DB"/>
		<stop  offset="0.35" style="stop-color:#3C99D0"/>
		<stop  offset="0.5403" style="stop-color:#3585BF"/>
		<stop  offset="0.7356" style="stop-color:#2E66A6"/>
		<stop  offset="0.9331" style="stop-color:#233F83"/>
		<stop  offset="1" style="stop-color:#263471"/>
	</linearGradient>
	<path class="st12" d="M572,441.1v8c11.9,0,43.8-0.3,55.5-0.2c1.6,0,2.9-0.6,3.9-1.7c6.9-7.3,13.8-14.6,20.7-22h22.7
		c4.1,7.9,10.6,11.3,18,9.6c6.8-1.6,11.5-7.7,11.5-14.6c-0.1-6.7-5.1-13.1-11.5-14.8c-6.1-1.6-15.5,1-18.6,11.7h-25.6
		c-7.4,7.8-14.8,15.6-22.2,23.4C615,440.6,583.5,441.1,572,441.1z M689.1,413.1c4-0.1,7.2,3.1,7.2,7.2c0,3.8-3.2,7-7.1,7.1
		c-3.9,0.1-7.2-3.3-7.2-7.3C682.1,416.4,685.4,413.2,689.1,413.1z"/>
	<g>
		
			<linearGradient id="SVGID_14_" gradientUnits="userSpaceOnUse" x1="709.9896" y1="614.6486" x2="639.5338" y2="684.3315" gradientTransform="matrix(1 0 0 -1 0 1000)">
			<stop  offset="0" style="stop-color:#41ABDF"/>
			<stop  offset="0.1672" style="stop-color:#40A7DB"/>
			<stop  offset="0.35" style="stop-color:#3C99D0"/>
			<stop  offset="0.5403" style="stop-color:#3585BF"/>
			<stop  offset="0.7356" style="stop-color:#2E66A6"/>
			<stop  offset="0.9331" style="stop-color:#233F83"/>
			<stop  offset="1" style="stop-color:#263471"/>
		</linearGradient>
		<circle class="st13" cx="669" cy="344.9" r="15.9"/>
		<circle class="st8" cx="669" cy="344.9" r="6.8"/>
	</g>
	<g>
		
			<linearGradient id="SVGID_15_" gradientUnits="userSpaceOnUse" x1="730.1421" y1="539.3149" x2="659.6865" y2="608.9979" gradientTransform="matrix(1 0 0 -1 0 1000)">
			<stop  offset="0" style="stop-color:#41ABDF"/>
			<stop  offset="0.1672" style="stop-color:#40A7DB"/>
			<stop  offset="0.35" style="stop-color:#3C99D0"/>
			<stop  offset="0.5403" style="stop-color:#3585BF"/>
			<stop  offset="0.7356" style="stop-color:#2E66A6"/>
			<stop  offset="0.9331" style="stop-color:#233F83"/>
			<stop  offset="1" style="stop-color:#263471"/>
		</linearGradient>
		<circle class="st14" cx="689.2" cy="420.2" r="15.9"/>
		<circle class="st8" cx="689.2" cy="420.2" r="6.8"/>
	</g>
	<g>
		
			<linearGradient id="SVGID_16_" gradientUnits="userSpaceOnUse" x1="697.3403" y1="483.295" x2="626.8845" y2="552.978" gradientTransform="matrix(1 0 0 -1 0 1000)">
			<stop  offset="0" style="stop-color:#41ABDF"/>
			<stop  offset="0.1672" style="stop-color:#40A7DB"/>
			<stop  offset="0.35" style="stop-color:#3C99D0"/>
			<stop  offset="0.5403" style="stop-color:#3585BF"/>
			<stop  offset="0.7356" style="stop-color:#2E66A6"/>
			<stop  offset="0.9331" style="stop-color:#233F83"/>
			<stop  offset="1" style="stop-color:#263471"/>
		</linearGradient>
		<circle class="st15" cx="656.4" cy="476.2" r="15.9"/>
		<circle class="st8" cx="656.4" cy="476.2" r="6.8"/>
	</g>
</g>
<g>
	<g>
		
			<linearGradient id="SVGID_17_" gradientUnits="userSpaceOnUse" x1="858.3081" y1="294.8717" x2="180.1467" y2="263.4207" gradientTransform="matrix(1 0 0 -1 0 1000)">
			<stop  offset="0" style="stop-color:#41ABDF"/>
			<stop  offset="0.1672" style="stop-color:#40A7DB"/>
			<stop  offset="0.35" style="stop-color:#3C99D0"/>
			<stop  offset="0.5403" style="stop-color:#3585BF"/>
			<stop  offset="0.7356" style="stop-color:#2E66A6"/>
			<stop  offset="0.9331" style="stop-color:#233F83"/>
			<stop  offset="1" style="stop-color:#263471"/>
		</linearGradient>
		<path class="st16" d="M222.7,751.3l-5.2,15.3h-14.1l22.5-66.3h18l23.5,66.3h-15.1l-5.5-15.3H222.7z M243.8,739.6
			c-4.7-14.1-7.7-22.9-9.3-28.9h-0.1c-1.6,6.5-4.9,16.9-8.8,28.9H243.8z"/>
		
			<linearGradient id="SVGID_18_" gradientUnits="userSpaceOnUse" x1="858.4326" y1="292.1888" x2="180.2712" y2="260.7378" gradientTransform="matrix(1 0 0 -1 0 1000)">
			<stop  offset="0" style="stop-color:#41ABDF"/>
			<stop  offset="0.1672" style="stop-color:#40A7DB"/>
			<stop  offset="0.35" style="stop-color:#3C99D0"/>
			<stop  offset="0.5403" style="stop-color:#3585BF"/>
			<stop  offset="0.7356" style="stop-color:#2E66A6"/>
			<stop  offset="0.9331" style="stop-color:#233F83"/>
			<stop  offset="1" style="stop-color:#263471"/>
		</linearGradient>
		<path class="st17" d="M332.8,746.2c-2.7,12.4-12,21.4-28.6,21.4c-21.1,0-31-14.9-31-33.8c0-18.2,10.3-34.5,31.7-34.5
			c17.7,0,26.3,10.4,27.8,21.5h-14.3c-1.3-5.1-4.9-10.2-14-10.2c-11.8,0-16.4,10.7-16.4,22.7c0,11.3,3.9,23,16.7,23
			c9.3,0,12.3-6.3,13.6-10.1L332.8,746.2L332.8,746.2z"/>
		
			<linearGradient id="SVGID_19_" gradientUnits="userSpaceOnUse" x1="858.5796" y1="289.0179" x2="180.4182" y2="257.5668" gradientTransform="matrix(1 0 0 -1 0 1000)">
			<stop  offset="0" style="stop-color:#41ABDF"/>
			<stop  offset="0.1672" style="stop-color:#40A7DB"/>
			<stop  offset="0.35" style="stop-color:#3C99D0"/>
			<stop  offset="0.5403" style="stop-color:#3585BF"/>
			<stop  offset="0.7356" style="stop-color:#2E66A6"/>
			<stop  offset="0.9331" style="stop-color:#233F83"/>
			<stop  offset="1" style="stop-color:#263471"/>
		</linearGradient>
		<path class="st18" d="M401.3,746.2c-2.7,12.4-12,21.4-28.6,21.4c-21.1,0-31-14.9-31-33.8c0-18.2,10.3-34.5,31.7-34.5
			c17.7,0,26.3,10.4,27.8,21.5h-14.3c-1.3-5.1-4.9-10.2-14-10.2c-11.8,0-16.4,10.7-16.4,22.7c0,11.3,3.9,23,16.7,23
			c9.3,0,12.3-6.3,13.6-10.1L401.3,746.2L401.3,746.2z"/>
		
			<linearGradient id="SVGID_20_" gradientUnits="userSpaceOnUse" x1="858.7164" y1="286.0677" x2="180.555" y2="254.6166" gradientTransform="matrix(1 0 0 -1 0 1000)">
			<stop  offset="0" style="stop-color:#41ABDF"/>
			<stop  offset="0.1672" style="stop-color:#40A7DB"/>
			<stop  offset="0.35" style="stop-color:#3C99D0"/>
			<stop  offset="0.5403" style="stop-color:#3585BF"/>
			<stop  offset="0.7356" style="stop-color:#2E66A6"/>
			<stop  offset="0.9331" style="stop-color:#233F83"/>
			<stop  offset="1" style="stop-color:#263471"/>
		</linearGradient>
		<path class="st19" d="M423.1,747.3c1.5,6.6,6.3,9.6,14,9.6c7.7,0,11-3,11-7.9c0-5.4-3.2-7.7-14.5-10.4
			c-18.1-4.2-22.5-10.8-22.5-19.7c0-11.5,8.7-19.4,24.3-19.4c17.6,0,24.6,9.4,25.6,19.2h-14.4c-0.7-4-3-8.6-11.5-8.6
			c-5.9,0-9.3,2.4-9.3,7.1c0,4.6,2.8,6.4,13.6,9c19.3,4.5,23.6,11.7,23.6,21.1c0,12.1-9.1,20.4-26.8,20.4
			c-16.8,0-25.7-8.3-27.3-20.4L423.1,747.3L423.1,747.3z"/>
		
			<linearGradient id="SVGID_21_" gradientUnits="userSpaceOnUse" x1="858.8212" y1="283.81" x2="180.6597" y2="252.3589" gradientTransform="matrix(1 0 0 -1 0 1000)">
			<stop  offset="0" style="stop-color:#41ABDF"/>
			<stop  offset="0.1672" style="stop-color:#40A7DB"/>
			<stop  offset="0.35" style="stop-color:#3C99D0"/>
			<stop  offset="0.5403" style="stop-color:#3585BF"/>
			<stop  offset="0.7356" style="stop-color:#2E66A6"/>
			<stop  offset="0.9331" style="stop-color:#233F83"/>
			<stop  offset="1" style="stop-color:#263471"/>
		</linearGradient>
		<path class="st20" d="M489.2,766.7v-23.5c0-0.8-0.1-1.4-0.6-2.1l-22.9-40.8h16.3c5.1,10,11.7,23.3,15.1,30.5
			c2.9-6.9,10.1-20.9,15.2-30.5h15L504.1,741c-0.3,0.5-0.6,0.8-0.6,2.1v23.7H489.2z"/>
		
			<linearGradient id="SVGID_22_" gradientUnits="userSpaceOnUse" x1="858.9755" y1="280.4829" x2="180.8141" y2="249.0318" gradientTransform="matrix(1 0 0 -1 0 1000)">
			<stop  offset="0" style="stop-color:#41ABDF"/>
			<stop  offset="0.1672" style="stop-color:#40A7DB"/>
			<stop  offset="0.35" style="stop-color:#3C99D0"/>
			<stop  offset="0.5403" style="stop-color:#3585BF"/>
			<stop  offset="0.7356" style="stop-color:#2E66A6"/>
			<stop  offset="0.9331" style="stop-color:#233F83"/>
			<stop  offset="1" style="stop-color:#263471"/>
		</linearGradient>
		<path class="st21" d="M543.8,747.3c1.5,6.6,6.3,9.6,14,9.6c7.7,0,11-3,11-7.9c0-5.4-3.2-7.7-14.5-10.4
			c-18.1-4.2-22.5-10.8-22.5-19.7c0-11.5,8.7-19.4,24.3-19.4c17.6,0,24.6,9.4,25.6,19.2h-14.4c-0.7-4-3-8.6-11.5-8.6
			c-5.9,0-9.3,2.4-9.3,7.1c0,4.6,2.8,6.4,13.6,9c19.3,4.5,23.6,11.7,23.6,21.1c0,12.1-9.1,20.4-26.8,20.4
			c-16.8,0-25.7-8.3-27.3-20.4L543.8,747.3L543.8,747.3z"/>
		
			<linearGradient id="SVGID_23_" gradientUnits="userSpaceOnUse" x1="859.0786" y1="278.2577" x2="180.9173" y2="246.8066" gradientTransform="matrix(1 0 0 -1 0 1000)">
			<stop  offset="0" style="stop-color:#41ABDF"/>
			<stop  offset="0.1672" style="stop-color:#40A7DB"/>
			<stop  offset="0.35" style="stop-color:#3C99D0"/>
			<stop  offset="0.5403" style="stop-color:#3585BF"/>
			<stop  offset="0.7356" style="stop-color:#2E66A6"/>
			<stop  offset="0.9331" style="stop-color:#233F83"/>
			<stop  offset="1" style="stop-color:#263471"/>
		</linearGradient>
		<path class="st22" d="M608.5,712.1h-20.1v-11.7h54.6v11.7h-20.1v54.6h-14.3L608.5,712.1L608.5,712.1z"/>
		
			<linearGradient id="SVGID_24_" gradientUnits="userSpaceOnUse" x1="859.2285" y1="275.0266" x2="181.0671" y2="243.5755" gradientTransform="matrix(1 0 0 -1 0 1000)">
			<stop  offset="0" style="stop-color:#41ABDF"/>
			<stop  offset="0.1672" style="stop-color:#40A7DB"/>
			<stop  offset="0.35" style="stop-color:#3C99D0"/>
			<stop  offset="0.5403" style="stop-color:#3585BF"/>
			<stop  offset="0.7356" style="stop-color:#2E66A6"/>
			<stop  offset="0.9331" style="stop-color:#233F83"/>
			<stop  offset="1" style="stop-color:#263471"/>
		</linearGradient>
		<path class="st23" d="M697.5,738.1h-31.8v16.8h35l-1.7,11.7h-47.3v-66.3h47.1v11.7h-33.1v14.2h31.8L697.5,738.1L697.5,738.1z"/>
		
			<linearGradient id="SVGID_25_" gradientUnits="userSpaceOnUse" x1="859.3845" y1="271.6639" x2="181.2231" y2="240.2128" gradientTransform="matrix(1 0 0 -1 0 1000)">
			<stop  offset="0" style="stop-color:#41ABDF"/>
			<stop  offset="0.1672" style="stop-color:#40A7DB"/>
			<stop  offset="0.35" style="stop-color:#3C99D0"/>
			<stop  offset="0.5403" style="stop-color:#3585BF"/>
			<stop  offset="0.7356" style="stop-color:#2E66A6"/>
			<stop  offset="0.9331" style="stop-color:#233F83"/>
			<stop  offset="1" style="stop-color:#263471"/>
		</linearGradient>
		<path class="st24" d="M766.9,741.8c0-11.4,0.2-24.1,0.5-31.5h-0.5c-3.1,13.6-9.7,35.6-16.1,56.4h-12.2
			c-4.8-18.2-11.7-43.3-14.6-56.6h-0.5c0.6,7.8,0.9,21.5,0.9,32.8v23.8h-13.1v-66.3h21.4c5.2,17.3,11,39.1,13,49h0.1
			c1.6-8.8,9-32,14.4-49h20.6v66.3h-13.9V741.8z"/>
	</g>
</g>
<g>
	<path class="st25" d="M199.3,798.8h6.2v32.7h-6.2V798.8z M201.5,798.8h19.7v5.9h-19.7V798.8z M201.5,812.3h17.2v5.9h-17.2V812.3z
		 M201.5,825.6h19.7v5.9h-19.7V825.6z"/>
	<path class="st25" d="M226.8,798.8h6.2v32.7h-6.2V798.8z M229.2,812.4h11.4c0.6,0,1.2-0.2,1.7-0.5c0.5-0.3,0.8-0.8,1.1-1.3
		c0.3-0.6,0.4-1.3,0.4-2c0-0.8-0.1-1.4-0.4-2c-0.3-0.6-0.6-1-1.1-1.3c-0.5-0.3-1-0.5-1.7-0.5h-11.4v-5.9h11.9c1.8,0,3.4,0.4,4.7,1.2
		c1.4,0.8,2.4,2,3.2,3.4c0.7,1.5,1.1,3.2,1.1,5.1s-0.4,3.7-1.1,5.1c-0.7,1.5-1.8,2.6-3.2,3.4s-2.9,1.2-4.7,1.2h-11.9V812.4z
		 M236.1,817.3l6.6-1l8.8,15.2H244L236.1,817.3z"/>
	<path class="st25" d="M256.8,798.8h6.2v32.7h-6.2V798.8z M259.6,812.9H270c0.7,0,1.4-0.2,1.9-0.5c0.6-0.3,1-0.8,1.3-1.4
		s0.5-1.3,0.5-2.1c0-0.8-0.2-1.5-0.5-2.1c-0.3-0.6-0.7-1.1-1.3-1.4c-0.6-0.3-1.2-0.5-2-0.5h-10.4v-5.9h10.3c2,0,3.8,0.4,5.4,1.2
		c1.5,0.8,2.8,2,3.6,3.5s1.3,3.3,1.3,5.3s-0.4,3.7-1.3,5.2c-0.9,1.5-2.1,2.7-3.6,3.5s-3.3,1.2-5.4,1.2h-10.3V812.9z"/>
	<path class="st25" d="M307.1,798.8h3.9l12.5,32.7h-6.6l-7.8-22.3l-7.8,22.3h-6.6L307.1,798.8z M300.6,820.3h17.2v5.9h-17.2V820.3z"
		/>
	<path class="st25" d="M330.5,830.4c-1.8-1-3.1-2.3-4-4.2c-0.9-1.8-1.4-4-1.4-6.6v-9c0-2.6,0.5-4.8,1.4-6.6c0.9-1.8,2.3-3.2,4-4.2
		c1.8-1,3.9-1.4,6.4-1.4c2.1,0,3.9,0.4,5.5,1.3s3,2.2,4,3.9c1.1,1.7,1.8,3.7,2.2,6.1h-6.4c-0.2-1.1-0.6-2-1.1-2.8
		c-0.5-0.8-1.1-1.3-1.8-1.8c-0.7-0.4-1.5-0.6-2.4-0.6c-1.2,0-2.1,0.2-2.9,0.7c-0.8,0.5-1.4,1.2-1.9,2.1c-0.4,0.9-0.6,2-0.6,3.3v9
		c0,1.3,0.2,2.4,0.6,3.3s1,1.6,1.9,2.1c0.8,0.5,1.8,0.7,2.9,0.7c0.9,0,1.7-0.2,2.4-0.6c0.7-0.4,1.3-1,1.8-1.7s0.9-1.7,1.1-2.8h6.4
		c-0.4,2.4-1.2,4.4-2.2,6.1c-1.1,1.7-2.4,3-4,3.9c-1.6,0.9-3.4,1.3-5.5,1.3C334.4,831.8,332.3,831.4,330.5,830.4z"/>
	<path class="st25" d="M358.1,830.4c-1.8-1-3.1-2.3-4-4.2c-0.9-1.8-1.4-4-1.4-6.6v-9c0-2.6,0.5-4.8,1.4-6.6c0.9-1.8,2.3-3.2,4-4.2
		c1.8-1,3.9-1.4,6.4-1.4c2.1,0,3.9,0.4,5.5,1.3s3,2.2,4,3.9c1.1,1.7,1.8,3.7,2.2,6.1h-6.4c-0.2-1.1-0.6-2-1.1-2.8
		c-0.5-0.8-1.1-1.3-1.8-1.8c-0.7-0.4-1.5-0.6-2.4-0.6c-1.2,0-2.1,0.2-2.9,0.7c-0.8,0.5-1.4,1.2-1.9,2.1c-0.4,0.9-0.6,2-0.6,3.3v9
		c0,1.3,0.2,2.4,0.6,3.3s1,1.6,1.9,2.1c0.8,0.5,1.8,0.7,2.9,0.7c0.9,0,1.7-0.2,2.4-0.6c0.7-0.4,1.3-1,1.8-1.7s0.9-1.7,1.1-2.8h6.4
		c-0.4,2.4-1.2,4.4-2.2,6.1c-1.1,1.7-2.4,3-4,3.9c-1.6,0.9-3.4,1.3-5.5,1.3C362,831.8,359.8,831.4,358.1,830.4z"/>
	<path class="st25" d="M385.9,830.3c-1.8-1-3.2-2.4-4.2-4.2c-1-1.8-1.5-3.9-1.5-6.3v-9.3c0-2.4,0.5-4.5,1.5-6.3
		c1-1.8,2.4-3.2,4.2-4.2c1.8-1,3.9-1.5,6.3-1.5c2.4,0,4.5,0.5,6.3,1.5c1.8,1,3.2,2.4,4.2,4.2c1,1.8,1.5,3.9,1.5,6.3v9.3
		c0,2.4-0.5,4.5-1.5,6.3c-1,1.8-2.4,3.2-4.2,4.2c-1.8,1-3.9,1.5-6.3,1.5C389.8,831.8,387.7,831.3,385.9,830.3z M395,825
		c0.8-0.5,1.5-1.1,1.9-2c0.5-0.9,0.7-1.9,0.7-3v-9.6c0-1.1-0.2-2.1-0.7-3c-0.5-0.9-1.1-1.5-1.9-2c-0.8-0.5-1.8-0.7-2.9-0.7
		c-1.1,0-2.1,0.2-2.9,0.7c-0.8,0.5-1.5,1.1-1.9,2c-0.5,0.9-0.7,1.9-0.7,3v9.6c0,1.1,0.2,2.1,0.7,3c0.5,0.9,1.1,1.5,1.9,2
		c0.8,0.5,1.8,0.7,2.9,0.7C393.2,825.7,394.2,825.4,395,825z"/>
	<path class="st25" d="M414.7,830.4c-1.8-1-3.1-2.3-4.1-4.2c-0.9-1.8-1.4-4-1.4-6.6v-20.8h6.2v21c0,1.9,0.5,3.3,1.5,4.4
		c1,1,2.4,1.5,4.2,1.5c1.8,0,3.3-0.5,4.3-1.5s1.5-2.5,1.5-4.4v-21h6.2v20.8c0,2.6-0.5,4.8-1.4,6.6c-0.9,1.8-2.3,3.2-4.1,4.2
		c-1.8,1-3.9,1.4-6.5,1.4S416.5,831.4,414.7,830.4z"/>
	<path class="st25" d="M439.4,798.8h7.5l12.2,25l-0.5,0.6v-25.6h5.9v32.6h-7.6l-12.1-24.6l0.5-0.6v25.2h-5.9V798.8z"/>
	<path class="st25" d="M468.9,798.8h23.9v5.9h-23.9V798.8z M477.8,801.5h6.2v30h-6.2V801.5z"/>
	<path class="st25" d="M502.3,831.5H496v-32.7h6.4V831.5z"/>
	<path class="st25" d="M509.1,798.8h7.5l12.2,25l-0.5,0.6v-25.6h5.9v32.6h-7.6l-12.1-24.6l0.5-0.6v25.2h-5.9V798.8z"/>
	<path class="st25" d="M564.5,813.2v6.4c0,2.4-0.5,4.6-1.5,6.4c-1,1.8-2.4,3.3-4.2,4.3c-1.8,1-3.9,1.5-6.2,1.5
		c-2.4,0-4.5-0.5-6.3-1.4c-1.8-1-3.2-2.3-4.2-4c-1-1.7-1.5-3.8-1.5-6v-9.6c0-2.4,0.5-4.6,1.5-6.4c1-1.8,2.4-3.3,4.2-4.3
		c1.8-1,3.9-1.5,6.2-1.5c1.9,0,3.7,0.4,5.4,1.2c1.6,0.8,3,1.9,4.1,3.4s1.8,3.2,2.2,5.1h-6.6c-0.2-0.7-0.6-1.3-1.1-1.8
		c-0.5-0.5-1.1-0.9-1.8-1.1c-0.7-0.3-1.4-0.4-2.2-0.4c-1.1,0-2.1,0.2-2.9,0.7s-1.5,1.2-1.9,2c-0.5,0.9-0.7,1.9-0.7,3.1v9.6
		c0,1,0.2,1.9,0.7,2.7c0.5,0.8,1.1,1.4,2,1.8s1.8,0.6,3,0.6c1.1,0,2.1-0.2,2.9-0.7c0.8-0.5,1.5-1.1,1.9-2s0.7-1.9,0.7-3.1v-0.5h-4.9
		v-5.9H564.5z"/>
	<path class="st25" d="M589.1,831.4c-1.5-0.3-2.9-0.8-4.2-1.4c-1.3-0.6-2.5-1.3-3.5-2.2l2.9-5.1c1.3,1,2.7,1.8,4.4,2.4
		c1.6,0.6,3.3,0.8,5.1,0.8c2,0,3.6-0.3,4.7-1c1.1-0.7,1.7-1.6,1.7-2.9v0c0-0.9-0.2-1.6-0.7-2.1s-1.1-0.9-1.9-1.1
		c-0.8-0.2-1.8-0.5-3.1-0.7c0,0-0.1,0-0.1,0c0,0-0.1,0-0.1,0l-0.5-0.1c-2.2-0.3-4-0.8-5.4-1.3c-1.4-0.5-2.7-1.4-3.7-2.7
		c-1-1.3-1.5-3.1-1.5-5.5v0c0-2.1,0.5-3.9,1.4-5.4s2.3-2.6,4.1-3.4c1.8-0.8,4-1.2,6.5-1.2c1.2,0,2.4,0.1,3.6,0.4
		c1.2,0.3,2.4,0.7,3.6,1.2s2.3,1.1,3.3,1.8l-2.6,5.2c-1.3-0.9-2.6-1.5-3.9-2s-2.7-0.7-3.9-0.7c-1.9,0-3.3,0.3-4.4,0.9
		c-1,0.6-1.5,1.5-1.5,2.6v0c0,0.9,0.3,1.7,0.8,2.2c0.5,0.5,1.2,0.9,2,1.2c0.8,0.3,1.9,0.5,3.3,0.8c0.1,0,0.1,0,0.2,0
		c0.1,0,0.1,0,0.2,0c0.1,0,0.2,0,0.3,0.1c0.1,0,0.2,0,0.3,0.1c2.1,0.4,3.8,0.9,5.2,1.5c1.4,0.6,2.5,1.5,3.5,2.8
		c0.9,1.3,1.4,3,1.4,5.2v0c0,2.1-0.5,3.9-1.5,5.3c-1,1.5-2.4,2.6-4.3,3.4s-4.1,1.2-6.7,1.2C592.1,831.8,590.6,831.7,589.1,831.4z"/>
	<path class="st25" d="M615.8,830.3c-1.8-1-3.2-2.4-4.2-4.2c-1-1.8-1.5-3.9-1.5-6.3v-9.3c0-2.4,0.5-4.5,1.5-6.3
		c1-1.8,2.4-3.2,4.2-4.2c1.8-1,3.9-1.5,6.3-1.5c2.4,0,4.5,0.5,6.3,1.5c1.8,1,3.2,2.4,4.2,4.2c1,1.8,1.5,3.9,1.5,6.3v9.3
		c0,2.4-0.5,4.5-1.5,6.3c-1,1.8-2.4,3.2-4.2,4.2c-1.8,1-3.9,1.5-6.3,1.5C619.7,831.8,617.6,831.3,615.8,830.3z M625,825
		c0.8-0.5,1.5-1.1,1.9-2c0.5-0.9,0.7-1.9,0.7-3v-9.6c0-1.1-0.2-2.1-0.7-3c-0.5-0.9-1.1-1.5-1.9-2c-0.8-0.5-1.8-0.7-2.9-0.7
		c-1.1,0-2.1,0.2-2.9,0.7c-0.8,0.5-1.5,1.1-1.9,2c-0.5,0.9-0.7,1.9-0.7,3v9.6c0,1.1,0.2,2.1,0.7,3c0.5,0.9,1.1,1.5,1.9,2
		c0.8,0.5,1.8,0.7,2.9,0.7C623.2,825.7,624.1,825.4,625,825z"/>
	<path class="st25" d="M640,798.8h6.2v32.7H640V798.8z M642.8,825.6h19.1v5.9h-19.1V825.6z"/>
	<path class="st25" d="M670.5,830.4c-1.8-1-3.1-2.3-4.1-4.2c-0.9-1.8-1.4-4-1.4-6.6v-20.8h6.2v21c0,1.9,0.5,3.3,1.5,4.4
		c1,1,2.4,1.5,4.2,1.5c1.8,0,3.3-0.5,4.3-1.5s1.5-2.5,1.5-4.4v-21h6.2v20.8c0,2.6-0.5,4.8-1.4,6.6c-0.9,1.8-2.3,3.2-4.1,4.2
		c-1.8,1-3.9,1.4-6.5,1.4S672.3,831.4,670.5,830.4z"/>
	<path class="st25" d="M691.2,798.8h23.9v5.9h-23.9V798.8z M700.1,801.5h6.2v30h-6.2V801.5z"/>
	<path class="st25" d="M724.6,831.5h-6.4v-32.7h6.4V831.5z"/>
	<path class="st25" d="M736.4,830.3c-1.8-1-3.2-2.4-4.2-4.2c-1-1.8-1.5-3.9-1.5-6.3v-9.3c0-2.4,0.5-4.5,1.5-6.3
		c1-1.8,2.4-3.2,4.2-4.2c1.8-1,3.9-1.5,6.3-1.5c2.4,0,4.5,0.5,6.3,1.5c1.8,1,3.2,2.4,4.2,4.2c1,1.8,1.5,3.9,1.5,6.3v9.3
		c0,2.4-0.5,4.5-1.5,6.3c-1,1.8-2.4,3.2-4.2,4.2c-1.8,1-3.9,1.5-6.3,1.5C740.3,831.8,738.2,831.3,736.4,830.3z M745.5,825
		c0.8-0.5,1.5-1.1,1.9-2s0.7-1.9,0.7-3v-9.6c0-1.1-0.2-2.1-0.7-3s-1.1-1.5-1.9-2c-0.8-0.5-1.8-0.7-2.9-0.7c-1.1,0-2.1,0.2-2.9,0.7
		c-0.8,0.5-1.5,1.1-1.9,2s-0.7,1.9-0.7,3v9.6c0,1.1,0.2,2.1,0.7,3s1.1,1.5,1.9,2c0.8,0.5,1.8,0.7,2.9,0.7
		C743.7,825.7,744.7,825.4,745.5,825z"/>
	<path class="st25" d="M760.6,798.8h7.5l12.2,25l-0.5,0.6v-25.6h5.9v32.6h-7.6L766,806.8l0.5-0.6v25.2h-5.9V798.8z"/>
</g>
<g class="st26">
	<path class="st27" d="M49.5,558.3h7.2v38.3h-7.2V558.3z M52.1,558.3h23.1v7H52.1V558.3z M52.1,574.1h20.2v7H52.1V574.1z
		 M52.1,589.7h23.1v7H52.1V589.7z"/>
	<path class="st27" d="M81.8,558.3H89v38.4h-7.2V558.3z M84.7,574.3H98c0.7,0,1.4-0.2,2-0.6c0.6-0.4,1-0.9,1.3-1.6
		c0.3-0.7,0.5-1.5,0.5-2.4c0-0.9-0.2-1.7-0.5-2.4c-0.3-0.7-0.7-1.2-1.3-1.6c-0.6-0.4-1.2-0.6-2-0.6H84.7v-7h13.9
		c2.1,0,4,0.5,5.6,1.4c1.6,0.9,2.8,2.3,3.7,4c0.9,1.7,1.3,3.7,1.3,6s-0.4,4.3-1.3,6c-0.9,1.7-2.1,3.1-3.7,4s-3.5,1.4-5.6,1.4H84.7
		V574.3z M92.7,580.1l7.7-1.2l10.3,17.8H102L92.7,580.1z"/>
	<path class="st27" d="M117,558.3h7.2v38.3H117V558.3z M120.3,574.8h12.3c0.9,0,1.6-0.2,2.3-0.6c0.7-0.4,1.2-1,1.5-1.7
		s0.6-1.5,0.6-2.5c0-0.9-0.2-1.8-0.5-2.5c-0.4-0.7-0.9-1.3-1.5-1.7c-0.7-0.4-1.4-0.6-2.3-0.6h-12.3v-7h12.1c2.4,0,4.5,0.5,6.3,1.5
		c1.8,1,3.2,2.4,4.2,4.1s1.5,3.8,1.5,6.2s-0.5,4.4-1.5,6.2c-1,1.8-2.4,3.1-4.2,4.1s-3.9,1.5-6.3,1.5h-12.1V574.8z"/>
	<path class="st27" d="M176.1,558.3h4.6l14.7,38.3h-7.8l-9.2-26.2l-9.2,26.2h-7.8L176.1,558.3z M168.5,583.6h20.2v7h-20.2V583.6z"/>
	<path class="st27" d="M204.4,595.6c-1.9-1-3.3-2.4-4.2-4.3c-1-1.9-1.5-4.2-1.5-6.9v-2.9c0-2.7,0.5-4.9,1.5-6.8
		c1-1.9,2.4-3.3,4.2-4.3c1.9-1,4.1-1.5,6.7-1.5c1.5,0,2.9,0.2,4.2,0.5c1.3,0.3,2.5,0.8,3.6,1.5s1.9,1.4,2.6,2.4l-4.7,4.5
		c-0.7-0.6-1.5-1.1-2.3-1.4c-0.9-0.3-1.8-0.5-2.8-0.5c-1.8,0-3.2,0.5-4.2,1.5c-1,1-1.5,2.4-1.5,4.1v2.9c0,1.8,0.5,3.2,1.5,4.2
		s2.4,1.5,4.2,1.5c1,0,2-0.2,2.8-0.6s1.7-0.9,2.3-1.6l4.7,4.8c-0.7,0.9-1.6,1.7-2.7,2.3s-2.2,1.1-3.6,1.5s-2.7,0.5-4.2,0.5
		C208.5,597.1,206.3,596.6,204.4,595.6z"/>
	<path class="st27" d="M231.3,595.6c-1.9-1-3.3-2.4-4.2-4.3c-1-1.9-1.5-4.2-1.5-6.9v-2.9c0-2.7,0.5-4.9,1.5-6.8
		c1-1.9,2.4-3.3,4.2-4.3c1.9-1,4.1-1.5,6.7-1.5c1.5,0,2.9,0.2,4.2,0.5c1.3,0.3,2.5,0.8,3.6,1.5s1.9,1.4,2.6,2.4l-4.7,4.5
		c-0.7-0.6-1.5-1.1-2.3-1.4c-0.9-0.3-1.8-0.5-2.8-0.5c-1.8,0-3.2,0.5-4.2,1.5c-1,1-1.5,2.4-1.5,4.1v2.9c0,1.8,0.5,3.2,1.5,4.2
		s2.4,1.5,4.2,1.5c1,0,2-0.2,2.8-0.6s1.7-0.9,2.3-1.6l4.7,4.8c-0.7,0.9-1.6,1.7-2.7,2.3s-2.2,1.1-3.6,1.5s-2.7,0.5-4.2,0.5
		C235.4,597.1,233.2,596.6,231.3,595.6z"/>
	<path class="st27" d="M258,595.7c-1.8-0.9-3.1-2.3-4-4.1c-0.9-1.8-1.4-3.9-1.4-6.4v-4.5c0-2.5,0.5-4.6,1.4-6.4c0.9-1.8,2.3-3.1,4-4
		c1.8-0.9,3.9-1.4,6.4-1.4c2.5,0,4.6,0.5,6.4,1.4c1.8,0.9,3.1,2.3,4,4c0.9,1.8,1.4,3.9,1.4,6.4v4.5c0,2.5-0.5,4.6-1.4,6.4
		c-0.9,1.8-2.3,3.1-4,4s-3.9,1.4-6.4,1.4C261.9,597.1,259.7,596.6,258,595.7z M267.7,588.8c0.8-0.9,1.2-2.1,1.2-3.6v-4.5
		c0-1.5-0.4-2.7-1.2-3.6c-0.8-0.8-1.9-1.3-3.4-1.3c-1.4,0-2.6,0.4-3.4,1.3c-0.8,0.8-1.2,2-1.2,3.6v4.5c0,1.5,0.4,2.7,1.2,3.6
		s1.9,1.3,3.4,1.3C265.8,590.1,266.9,589.7,267.7,588.8z"/>
	<path class="st27" d="M289.3,585.9c0,1.3,0.4,2.3,1.1,3.1c0.7,0.7,1.8,1.1,3.2,1.1c1.4,0,2.4-0.4,3.1-1.1c0.7-0.7,1.1-1.8,1.1-3.2
		l0.4,6c-0.5,1.5-1.4,2.8-2.5,3.8s-2.6,1.5-4.3,1.5c-2.9,0-5.2-0.9-6.8-2.8c-1.6-1.9-2.4-4.6-2.4-8v-16.9h7.2V585.9z M297.8,569.3
		h7.2v27.4h-7.2V569.3z"/>
	<path class="st27" d="M312.1,569.3h7.2v27.4h-7.2V569.3z M328,580.1c0-1.3-0.4-2.4-1.1-3.1s-1.9-1.1-3.3-1.1
		c-1.3,0-2.4,0.4-3.1,1.1c-0.7,0.7-1.1,1.8-1.1,3.2l-0.6-6.1c0.8-1.7,1.8-3,3-3.9c1.2-0.9,2.6-1.3,4.3-1.3c2.9,0,5.1,1,6.7,2.9
		c1.6,1.9,2.4,4.7,2.4,8.2v16.6H328V580.1z"/>
	<path class="st27" d="M340.2,569.3h13.4v6.2h-13.4V569.3z M344.7,595c-1.1-1.2-1.7-3-1.7-5.4v-28.2h7.2v26.4c0,0.7,0.1,1.2,0.4,1.5
		s0.6,0.5,1.2,0.5h1.8v7h-3.6C347.6,596.8,345.8,596.2,344.7,595z"/>
	<path class="st27" d="M359.5,558.3h7.2v7.2h-7.2V558.3z M359.5,569.3h7.2v27.4h-7.2V569.3z"/>
	<path class="st27" d="M373.5,569.3h7.2v27.4h-7.2V569.3z M389.3,580.1c0-1.3-0.4-2.4-1.1-3.1s-1.9-1.1-3.3-1.1
		c-1.3,0-2.4,0.4-3.1,1.1c-0.7,0.7-1.1,1.8-1.1,3.2l-0.6-6.1c0.8-1.7,1.8-3,3-3.9c1.2-0.9,2.6-1.3,4.3-1.3c2.9,0,5.1,1,6.7,2.9
		c1.6,1.9,2.4,4.7,2.4,8.2v16.6h-7.2V580.1z"/>
	<path class="st27" d="M407.1,595.7c-1.4-0.9-2.4-2.3-3.2-4c-0.7-1.8-1.1-3.9-1.1-6.4v-4.4c0-2.5,0.4-4.7,1.1-6.5
		c0.7-1.8,1.8-3.2,3.2-4.1c1.4-0.9,3-1.4,5-1.4c1.5,0,2.8,0.4,4,1.3c1.2,0.9,2.2,2.1,2.9,3.7l-0.6,6.1c0-0.9-0.2-1.7-0.5-2.4
		s-0.8-1.1-1.4-1.5c-0.6-0.3-1.3-0.5-2.2-0.5c-1.4,0-2.4,0.5-3.2,1.4c-0.7,0.9-1.1,2.2-1.1,3.9v4.4c0,1.6,0.4,2.9,1.1,3.8
		c0.7,0.9,1.8,1.3,3.2,1.3c0.9,0,1.6-0.2,2.2-0.5s1.1-0.8,1.4-1.5s0.5-1.4,0.5-2.3l0.4,6.2c-0.6,1.5-1.4,2.6-2.6,3.5
		c-1.2,0.8-2.5,1.2-4.1,1.2C410.1,597.1,408.4,596.6,407.1,595.7z M407.5,606.6c-1.7-0.8-3-1.8-4-3.2l4.9-4.5
		c0.6,0.7,1.4,1.2,2.2,1.5c0.9,0.4,1.8,0.5,2.7,0.5c1.5,0,2.7-0.4,3.7-1.2c1-0.8,1.4-2,1.4-3.4v-27.1h7.2v26.6
		c0,2.5-0.5,4.7-1.4,6.5c-1,1.8-2.4,3.2-4.2,4.1c-1.8,0.9-4.1,1.4-6.7,1.4C411.1,607.8,409.2,607.4,407.5,606.6z"/>
	<path class="st27" d="M454.4,596.5c-1.7-0.4-3.4-0.9-4.9-1.6c-1.5-0.7-2.9-1.6-4.1-2.6l3.3-6c1.5,1.2,3.2,2.1,5.1,2.8
		c1.9,0.7,3.9,1,6,1c2.4,0,4.2-0.4,5.5-1.2c1.3-0.8,2-1.9,2-3.4v0c0-1-0.3-1.8-0.9-2.4s-1.3-1-2.3-1.3c-0.9-0.3-2.1-0.5-3.6-0.8
		c-0.1,0-0.1,0-0.1,0c0,0-0.1,0-0.1,0l-0.6-0.1c-2.6-0.4-4.7-0.9-6.4-1.5c-1.7-0.6-3.1-1.7-4.3-3.2c-1.2-1.5-1.8-3.7-1.8-6.5v0
		c0-2.5,0.6-4.6,1.7-6.4s2.7-3.1,4.8-4c2.1-0.9,4.7-1.4,7.6-1.4c1.4,0,2.8,0.2,4.2,0.5c1.4,0.3,2.8,0.8,4.2,1.4s2.7,1.3,3.9,2.2
		l-3.1,6.1c-1.5-1-3-1.8-4.6-2.4s-3.2-0.8-4.6-0.8c-2.2,0-3.9,0.4-5.1,1.1s-1.8,1.8-1.8,3.1v0c0,1.1,0.3,2,0.9,2.6
		c0.6,0.6,1.4,1.1,2.3,1.4c0.9,0.3,2.2,0.6,3.9,0.9c0.1,0,0.1,0,0.2,0c0.1,0,0.1,0,0.2,0c0.1,0,0.2,0,0.3,0.1c0.1,0,0.2,0,0.3,0.1
		c2.4,0.5,4.5,1.1,6.1,1.7c1.6,0.7,3,1.8,4.1,3.3c1.1,1.5,1.6,3.6,1.6,6.2v0.1c0,2.4-0.6,4.5-1.7,6.3c-1.1,1.7-2.8,3.1-5,4
		s-4.8,1.4-7.9,1.4C458,597.1,456.2,596.9,454.4,596.5z"/>
	<path class="st27" d="M485.1,595.7c-1.8-0.9-3.1-2.3-4-4.1c-0.9-1.8-1.4-3.9-1.4-6.4v-4.5c0-2.5,0.5-4.6,1.4-6.4
		c0.9-1.8,2.3-3.1,4-4c1.8-0.9,3.9-1.4,6.4-1.4c2.5,0,4.6,0.5,6.4,1.4c1.8,0.9,3.1,2.3,4,4c0.9,1.8,1.4,3.9,1.4,6.4v4.5
		c0,2.5-0.5,4.6-1.4,6.4c-0.9,1.8-2.3,3.1-4,4c-1.8,0.9-3.9,1.4-6.4,1.4C489,597.1,486.9,596.6,485.1,595.7z M494.9,588.8
		c0.8-0.9,1.2-2.1,1.2-3.6v-4.5c0-1.5-0.4-2.7-1.2-3.6c-0.8-0.8-1.9-1.3-3.4-1.3c-1.4,0-2.6,0.4-3.4,1.3c-0.8,0.8-1.2,2-1.2,3.6v4.5
		c0,1.5,0.4,2.7,1.2,3.6s1.9,1.3,3.4,1.3C492.9,590.1,494.1,589.7,494.9,588.8z"/>
	<path class="st27" d="M517.1,587.6c0,0.7,0.2,1.2,0.6,1.5c0.4,0.4,0.9,0.5,1.6,0.5h1.2v7h-3.7c-2.2,0-3.9-0.6-5.1-1.9
		s-1.8-3-1.8-5.4v-31.1h7.2V587.6z"/>
	<path class="st27" d="M532.5,585.9c0,1.3,0.4,2.3,1.1,3.1c0.7,0.7,1.8,1.1,3.2,1.1c1.4,0,2.4-0.4,3.1-1.1c0.7-0.7,1.1-1.8,1.1-3.2
		l0.4,6c-0.5,1.5-1.4,2.8-2.5,3.8c-1.2,1-2.6,1.5-4.3,1.5c-2.9,0-5.2-0.9-6.8-2.8c-1.6-1.9-2.4-4.6-2.4-8v-16.9h7.2V585.9z
		 M541,569.3h7.2v27.4H541V569.3z"/>
	<path class="st27" d="M553.2,569.3h13.4v6.2h-13.4V569.3z M557.7,595c-1.1-1.2-1.7-3-1.7-5.4v-28.2h7.2v26.4c0,0.7,0.1,1.2,0.4,1.5
		s0.7,0.5,1.2,0.5h1.8v7H563C560.6,596.8,558.8,596.2,557.7,595z"/>
	<path class="st27" d="M572.5,558.3h7.2v7.2h-7.2V558.3z M572.5,569.3h7.2v27.4h-7.2V569.3z"/>
	<path class="st27" d="M591.1,595.7c-1.8-0.9-3.1-2.3-4-4.1c-0.9-1.8-1.4-3.9-1.4-6.4v-4.5c0-2.5,0.5-4.6,1.4-6.4
		c0.9-1.8,2.3-3.1,4-4c1.8-0.9,3.9-1.4,6.4-1.4s4.6,0.5,6.4,1.4c1.8,0.9,3.1,2.3,4,4c0.9,1.8,1.4,3.9,1.4,6.4v4.5
		c0,2.5-0.5,4.6-1.4,6.4c-0.9,1.8-2.3,3.1-4,4c-1.8,0.9-3.9,1.4-6.4,1.4S592.9,596.6,591.1,595.7z M600.9,588.8
		c0.8-0.9,1.2-2.1,1.2-3.6v-4.5c0-1.5-0.4-2.7-1.2-3.6s-1.9-1.3-3.4-1.3c-1.4,0-2.6,0.4-3.4,1.3c-0.8,0.8-1.2,2-1.2,3.6v4.5
		c0,1.5,0.4,2.7,1.2,3.6s1.9,1.3,3.4,1.3C598.9,590.1,600.1,589.7,600.9,588.8z"/>
	<path class="st27" d="M615.9,569.3h7.2v27.4h-7.2V569.3z M631.7,580.1c0-1.3-0.4-2.4-1.1-3.1c-0.8-0.7-1.9-1.1-3.3-1.1
		c-1.3,0-2.4,0.4-3.1,1.1c-0.7,0.7-1.1,1.8-1.1,3.2l-0.6-6.1c0.8-1.7,1.8-3,3-3.9c1.2-0.9,2.6-1.3,4.3-1.3c2.9,0,5.1,1,6.7,2.9
		c1.6,1.9,2.4,4.7,2.4,8.2v16.6h-7.2V580.1z"/>
</g>
</svg>
