<?xml version="1.0" encoding="utf-8"?>
<!-- Generator: Adobe Illustrator 25.2.0, SVG Export Plug-In . SVG Version: 6.00 Build 0)  -->
<svg version="1.1" id="Layer_1" xmlns="http://www.w3.org/2000/svg" xmlns:xlink="http://www.w3.org/1999/xlink" x="0px" y="0px"
	 viewBox="100 350 850 300"  xml:space="preserve">
<style type="text/css">
	.st0{fill:url(#SVGID_1_);}
	.st1{fill:url(#SVGID_2_);}
	.st2{fill:url(#SVGID_3_);}
	.st3{fill:url(#SVGID_4_);}
	.st4{fill:url(#SVGID_5_);}
	.st5{fill:url(#SVGID_6_);}
	.st6{fill:url(#SVGID_7_);}
	.st7{fill:url(#SVGID_8_);}
	.st8{fill:#FFFFFF;}
	.st9{fill:url(#SVGID_9_);}
	.st10{fill:url(#SVGID_10_);stroke:url(#SVGID_11_);}
	.st11{fill:url(#SVGID_12_);}
	.st12{fill:url(#SVGID_13_);}
	.st13{fill:url(#SVGID_14_);}
	.st14{fill:url(#SVGID_15_);}
	.st15{fill:url(#SVGID_16_);}
	.st16{fill:url(#SVGID_17_);}
	.st17{fill:url(#SVGID_18_);}
	.st18{fill:url(#SVGID_19_);}
	.st19{fill:url(#SVGID_20_);}
	.st20{fill:url(#SVGID_21_);}
	.st21{fill:url(#SVGID_22_);}
	.st22{fill:url(#SVGID_23_);}
	.st23{fill:url(#SVGID_24_);}
	.st24{fill:url(#SVGID_25_);}
	.st25{fill:#3883B2;}
	.st26{display:none;}
	.st27{display:inline;fill:#3883B2;}
</style>
<g>
	<linearGradient id="SVGID_1_" gradientUnits="userSpaceOnUse" x1="820.2037" y1="413.8847" x2="750.2016" y2="483.1193">
		<stop  offset="0" style="stop-color:#41ABDF"/>
		<stop  offset="0.1672" style="stop-color:#40A7DB"/>
		<stop  offset="0.35" style="stop-color:#3C99D0"/>
		<stop  offset="0.5403" style="stop-color:#3585BF"/>
		<stop  offset="0.7356" style="stop-color:#2E66A6"/>
		<stop  offset="0.9331" style="stop-color:#233F83"/>
		<stop  offset="1" style="stop-color:#263471"/>
	</linearGradient>
	<path class="st0" d="M797.7,487.7h-36.8c-2.8,0-5-2.2-5-5V426c0-2.8,2.2-5,5-5h36.8c2.8,0,5,2.2,5,5v56.6
		C802.7,485.5,800.4,487.7,797.7,487.7z"/>
	
		<linearGradient id="SVGID_2_" gradientUnits="userSpaceOnUse" x1="914.2817" y1="673.5805" x2="671.0997" y2="433.0656" gradientTransform="matrix(1 0 0 -1 0 1002)">
		<stop  offset="0" style="stop-color:#41ABDF"/>
		<stop  offset="0.1672" style="stop-color:#40A7DB"/>
		<stop  offset="0.35" style="stop-color:#3C99D0"/>
		<stop  offset="0.5403" style="stop-color:#3585BF"/>
		<stop  offset="0.7356" style="stop-color:#2E66A6"/>
		<stop  offset="0.9331" style="stop-color:#233F83"/>
		<stop  offset="1" style="stop-color:#263471"/>
	</linearGradient>
	<path class="st1" d="M671.3,554.8c5.6-5.6,10.9-10.9,16.3-16.4l0,0c0.2-0.1,2.6-2.3,2.7-2.4c2.4-2.3,2.4-2.3,4.9-4.7l0,0
		c0.7-0.7,1.5-1.3,2.2-2.1c1.5-1.7,3.3-3.4,5-5c0.5-0.5,1-0.9,1.5-1.4c2.6-2.6,5.2-5,7.8-7.6c5-5,18.7-17,19.2-16.6
		c5.3,4.3,10.7,8.7,15.9,13.1c4.8,4,9.7,7.9,14.9,11.3c2.6,1.7,5,1.9,7.7,0.1c3.6-2.2,7-4.8,10.2-7.3l0,0c0.1-0.1,0.2-0.2,0.3-0.3
		l0,0c0.1-0.1,0.2-0.2,0.3-0.3l0,0c0.5-0.3,0.8-0.7,1.3-1c6.4-5.1,12.6-10.7,18.3-16.6c7.2-7,13.8-14.5,19.8-22.7l0,0
		c0.3-0.5,0.8-1,1.2-1.6c4.9-6.5,8.8-11.7,12.6-19v-0.1c0.1-0.2,0.7-1.4,0.7-1.4c0.1-0.1,0.5-0.7,0.6-0.9l0,0
		c0.1-0.2,0.8-1.4,0.9-1.6c1.2-2.1,1.4-2.4,2.6-4.5l0,0c0.2-0.5,0.5-0.8,0.7-1.3c0.3-0.5,0.7-1,0.9-1.5c3.1-6.4,5.8-12.9,8.1-19.7
		c1.3-3.4,2.4-6.9,3.1-10.5c6.9,1.9,13.7,3.7,21.1,5.7c-3.1-7.9-6-15.4-9.1-22.8c-4.8-12.2-9.4-24.5-14.2-36.9
		c-4.4,3.6-8.6,7-12.8,10.2c-0.2,0.2-0.6,0.5-0.8,0.7c-0.1,0.1-0.2,0.2-0.5,0.3c-8.7,7-17.3,14-26.1,20.9c-3.4,2.8-6.7,5.5-10.5,8.5
		c7.3,1.9,14.3,3.7,21.3,5.5c0.1,0-0.5,0.1-0.2,0.1c-0.2-0.1-0.1-0.3,0.2-0.1c-0.1,0.3-0.1,0.7-0.3,1.3c-2.9,10.2-5.9,19.2-10.8,28
		c-1.4,2.6-1.9,3.7-2.7,5.1c-0.9,1.6-1.7,3.1-1.9,3.3c-1.6,2.9-2.7,4.3-3.1,5.1c-0.8,1.2-1.3,1.9-2.1,2.9c-0.7,0.8-1.3,1.7-2.9,3.8
		c-1.4,1.9-2.1,2.8-3.1,4.1c-1.7,2.1-2.1,2.3-2.9,3.4c-0.8,1-1.3,1.5-1.4,1.6c-0.7,0.7-0.7,0.8-1.2,1.4c-0.3,0.3-0.7,0.8-1,1.4
		c-0.6,0.7-0.9,0.8-1.5,1.6c-0.3,0.3-0.8,0.8-1,1.2c-0.7,0.8-0.6,0.7-1.4,1.5c-1.5,1.5-2.2,2.1-2.9,2.7c-1.3,1.3-2.4,2.6-3.1,3.1
		c-0.5,0.3-2,1.6-2.9,2.4c-2.4,2.2-2.9,3.1-4.7,4.3c-0.3,0.2-3,2.8-3.4,3c-0.1,0.1-5.3-3.6-6-4.2c-0.1-0.1-0.9-0.7-1-0.8
		c-0.7-0.5-1.2-0.7-1.7-1.4c-2-1.5-2.9-2.3-5.2-4.4c-5.5-4.4-9.5-7.7-17.1-14.1c-2.2-1.7-4.7-2.1-7.3-0.8l0,0
		c-0.2,0.1-0.5,0.2-0.7,0.3l0,0c-0.2,0.1-0.3,0.2-0.6,0.3c-0.1,0.1-1.4,1-1.5,1.3c-0.3,0.3-0.7,0.7-0.9,1c-0.1,0.1-0.1,0.1-0.3,0.2
		c-0.5,0.5-0.9,0.8-1.4,1.3c-0.1,0.1-0.1,0.1-0.2,0.2c-2.3,2.2-4.7,4.4-6.9,6.6l0,0c-1,1-2.1,2-3.1,3c-0.5,0.3-0.8,0.8-1.3,1.2h0.1
		h-0.1c-0.1,0.1-0.2,0.2-0.3,0.3l0,0c-0.1,0.1-0.3,0.3-0.5,0.5l0,0c-0.1,0.1-0.2,0.2-0.3,0.3c-0.2,0.2-0.5,0.5-0.6,0.6
		c-5.8,5.6-11.6,11.3-17.4,16.9c-2.9,2.8-5.8,5.6-8.7,8.4c-3.6,3.4-7.2,6.9-10.7,10.2 M687.6,538.4L687.6,538.4L687.6,538.4
		L687.6,538.4z"/>
	
		<linearGradient id="SVGID_3_" gradientUnits="userSpaceOnUse" x1="971.0662" y1="616.1666" x2="727.8843" y2="375.6516" gradientTransform="matrix(1 0 0 -1 0 1002)">
		<stop  offset="0" style="stop-color:#41ABDF"/>
		<stop  offset="0.1672" style="stop-color:#40A7DB"/>
		<stop  offset="0.35" style="stop-color:#3C99D0"/>
		<stop  offset="0.5403" style="stop-color:#3585BF"/>
		<stop  offset="0.7356" style="stop-color:#2E66A6"/>
		<stop  offset="0.9331" style="stop-color:#233F83"/>
		<stop  offset="1" style="stop-color:#263471"/>
	</linearGradient>
	<path class="st2" d="M759.1,538.3c-10.6-5.5-19.3-13.4-28.6-21.2c-4.1,4.2-8.1,8.4-12.2,12.6c-3.1,3-6.3,6-9.3,9.1
		c0.1,0.2,0.2,0.5,0.3,0.7c-0.1-0.2-0.2-0.5-0.3-0.7c-3.7,3.6-7.6,7.3-11.3,10.9c-4.5,4.4-9.1,8.7-13.6,13.1
		c0.1,0.1,0.1,0.2,0.2,0.3c-0.1-0.1-0.1-0.2-0.2-0.3c-4,4.3-7.9,8.6-12.6,13.6c0,2,0,5.2,0,8.6c0,12.6,0,25,0,37.6
		c0,2.1,0.5,4.1,1.5,6c2.9,5.3,7.3,8.5,13.4,8.6c25.6,0.1,51.3,0,76.9,0c0.3,0,0.6,0,0.9,0c2.7,0,5.5,0,8.1,0c6.4,0,12.9,0,19.3,0
		l0,0c9,0,17.8,0.1,26.7,0c1,0,2.1-0.2,3.3-0.3c4.1-0.5,7-2.9,9.4-5.9c2.8-3.4,3.4-7.3,3.1-11.5c0-2,0-4,0-5.9c0-3.6,0-7.3,0-10.9
		c0-5.5,0-10.8,0-16.3c0-5,0-10,0-15c0-5.7,0-11.4,0-17.1c0-2.2,0-4.3,0-6.5c0-2.6,0-5,0-7.6c0-1.3,0-2.4,0-3.7c0-0.3,0-0.7,0-0.9
		c0-5.1,0-10.2,0-15.2c0-1.7,0-3.5,0-5.3c0-2.4,0-4.8,0-7.2c0-9.2,0-18.4,0-28.3c-4.9,7.8-10.4,14.2-15.6,20.6
		c-0.1,0.1-0.2,0.3-0.3,0.5l0,0c-4.4,4.7-9,9.3-13.4,14l-0.3,0.3l-0.1,0.1c-0.1,0.1-0.3,0.2-0.5,0.3l0,0c-3.6,3.1-7.2,6.3-10.8,9.4
		c-0.1,0.1-0.3,0.2-0.5,0.3l0,0c-5.2,4-9.8,7.3-15.5,10.7c-2.9,1.7-1.3,0.8-2.1,1.3c-0.1,0.1-1.3,0.7-1.4,0.8
		C768.9,540.2,764.2,541.4,759.1,538.3 M764.9,552.1L764.9,552.1L764.9,552.1z M719.2,583.6c6.9,0,13.7,0,20.6,0v8
		c-2.9,0-5.8,0-8.7,0c-4,0-7.8,0-11.9,0 M719.1,584.2L719.1,584.2L719.1,584.2z M739.9,600.1c0,0,0.1,0,0.1,0.1
		C740,600.1,740,600.1,739.9,600.1c0,2.6,0,5.1,0,7.9c-5.3,0-10.7,0-16,0c-1.6,0-3.1,0-5,0c0-2.8,0-5.3,0-7.9c0,0.1-0.1,0.3-0.1,0.5
		c0-0.1,0.1-0.3,0.1-0.5 M773,552.7v6.6c4.3,0.6,8.5,1.5,12.2,3.6c0.7,0.3,1.9,0.6,1.7,1.9c-0.1,0.2-0.2,0.5-0.3,0.8
		c0,0.1,0,0.3,0,0.5c0-0.1,0-0.3,0-0.5l0,0l0,0l0,0l0,0c-0.8,1.9-1.7,3.8-2.7,5.8c-5.9-2.8-12.1-5-18.8-3.3
		c-2.6,0.6-4.8,1.6-5.6,4.3c-1,3.3,0.7,6,4.9,7.6c5.8,2.1,12.1,3.1,17.7,6.2l0,0c0.1,0.1,0.2,0.1,0.3,0.2l0,0
		c0.1,0.1,0.2,0.1,0.3,0.2l0,0l0,0c0.3,0.2,0.6,0.3,0.9,0.6l0,0c0.1,0.1,0.3,0.3,0.6,0.5c0.1,0.1,0.1,0.1,0.2,0.2
		c3,2.2,4.9,7.3,4.8,9.3c-0.2,2.7-0.2,4-0.6,5c-1.3,3.6-3.3,6.9-6.6,8.6c-2.4,1.4-5.2,2.1-8.1,2.8c-0.6,0.1-1.5-0.1-1.2,1
		c0,2.4,0,4.9,0,7.6c-2.4,0-4.7,0-7,0c-0.1-0.1-0.1-0.1-0.2,0c-1.3-0.1-0.3-1.3-0.8-1.7l0,0l0,0c0-0.3,0-0.7,0-1l0,0
		c0-1,0-2.1,0-3.1c0-0.3-0.1-0.7-0.1-1.2c0.1-0.1,0.1-0.1,0-0.2c0-0.1,0.1-0.1,0.1-0.2v-0.1c-0.1-0.1-0.3-0.3-0.5-0.5
		c-0.3,0-0.6,0-0.8-0.1l0,0c-5.6-0.8-10.8-2.4-15.5-5.7c0.3-0.9,0.6-1.7,0.8-2.6c-0.3,0-0.6,0.1-0.7,0.2c0.1-0.1,0.3-0.2,0.7-0.2
		c0.8-1.7,1.7-3.4,2.6-5.1c2.9,1.5,5.6,3.4,8.8,4l0,0c4.4,1.4,9.1,1.9,13.6,0.7c3-0.7,5-2.4,5.5-5.6c0.3-3.3-1.7-4.8-4.3-6
		c-4.4-2.1-9.2-2.9-13.8-4.1c-4.4-1.9-8.7-3.7-10.9-8.3c-0.5-0.8-0.5-1-0.7-2c-0.1-0.3-0.1-0.5-0.2-0.8c-0.1-0.3,0-0.2-0.1-0.6
		c-0.5-3.4-0.1-5.5,0.5-7.3c0.3-1.2,1-2.4,1.4-3c0.5-1,0.9-1.6,1.2-2c0-0.1,0.1-0.1,0.1-0.2c0,0,0.1-0.1,0.2-0.2
		c0.1-0.2,0.2-0.2,0.5-0.5c0,0,0.2-0.2,0.5-0.5l0.3-0.2c0.1,0,0.1-0.1,0.2-0.2l0.1-0.1c0.1-0.1,0.3-0.2,0.5-0.3l0.3-0.2
		c0.3-0.3,0.8-0.5,1-0.7c4.8-2.4,5.1-2.2,8.6-2.8h0.1l0,0l0,0v-0.1v-0.1c0-0.2,0-0.3,0-0.6c0-0.1,0-0.2,0-0.3c0-1.7,0-3.6,0-5.3l0,0
		c0-0.2,0-0.3,0-0.6c2.7-0.7,5.3-0.7,8,0l0,0C773,552.2,773,552.4,773,552.7 M783.6,586.5l-0.1-0.1
		C783.6,586.5,783.6,586.5,783.6,586.5z M762.5,614.3c0.1,0,0.1,0,0.2,0c0.1,0,0.1,0,0.2,0c-0.1,0-0.1,0-0.2,0
		C762.6,614.3,762.6,614.3,762.5,614.3z M762.3,614.4C762.3,614.4,762.3,614.3,762.3,614.4L762.3,614.4z M764.5,617.8
		c0-0.1,0-0.2,0-0.3C764.4,617.6,764.4,617.7,764.5,617.8z"/>
	
		<linearGradient id="SVGID_4_" gradientUnits="userSpaceOnUse" x1="965.2618" y1="622.0353" x2="722.0799" y2="381.5203" gradientTransform="matrix(1 0 0 -1 0 1002)">
		<stop  offset="0" style="stop-color:#41ABDF"/>
		<stop  offset="0.1672" style="stop-color:#40A7DB"/>
		<stop  offset="0.35" style="stop-color:#3C99D0"/>
		<stop  offset="0.5403" style="stop-color:#3585BF"/>
		<stop  offset="0.7356" style="stop-color:#2E66A6"/>
		<stop  offset="0.9331" style="stop-color:#233F83"/>
		<stop  offset="1" style="stop-color:#263471"/>
	</linearGradient>
	<path class="st3" d="M848.5,462.3c0,2,0,3.8,0,5.7c8.1,0,16.2,0,24.2,0c1.2,0,2-0.3,2.7-1.2c4.8-5,9.4-10,14.2-15.1
		c5.2,0,10.5,0,15.6,0c2.8,5.5,7.2,7.8,12.3,6.5c4.7-1.2,7.9-5.2,7.9-10c0-4.5-3.5-9-7.9-10.1c-4.2-1-10.6,0.7-12.8,8
		c-5.8,0-11.7,0-17.6,0c-5.1,5.3-10.1,10.7-15.2,16C864.3,462.3,856.4,462.3,848.5,462.3z M915,443.5c2.8,0,5,2.1,5,4.9
		c0,2.6-2.2,4.8-4.9,4.9c-2.7,0-5-2.2-4.9-5C910.3,445.8,912.5,443.5,915,443.5z"/>
	
		<linearGradient id="SVGID_5_" gradientUnits="userSpaceOnUse" x1="1012.8346" y1="575.3819" x2="768.5237" y2="333.7504" gradientTransform="matrix(1 0 0 -1 0 1002)">
		<stop  offset="0" style="stop-color:#41ABDF"/>
		<stop  offset="0.1672" style="stop-color:#40A7DB"/>
		<stop  offset="0.35" style="stop-color:#3C99D0"/>
		<stop  offset="0.5403" style="stop-color:#3585BF"/>
		<stop  offset="0.7356" style="stop-color:#2E66A6"/>
		<stop  offset="0.9331" style="stop-color:#233F83"/>
		<stop  offset="1" style="stop-color:#263471"/>
	</linearGradient>
	<path class="st4" d="M870.5,526.3c-0.2,0-0.5,0-0.8,0c-1.5,0-3,0-4.5,0 M874.6,526.3c-5.1,0-1.3,0-1.4,0c-0.8,0-1.7,0-2.7,0
		 M865.2,526.3h-16.7l0,0c0,0.8,0,8.5,0,9.4h1.2h0.1h0.1c6.4,0,12.8,0,19.2,0c0.1,0,0.2,0,0.5,0c0.6,0,1.2,0,1.7,0
		c1.5,0,3.1,0,4.4,0c0.3,0,0.7,0.1,0.9,0.3c2.2,2.1,4.3,4.1,6.6,6.2c0.2,0.2,0.6,0.3,0.9,0.3h12.6c0.3,0.7,0.7,1.4,1,2
		c0.5,0.8,0,1.9-0.9,2h-0.3l0,0c-1.2,0-2.3,0-3.5,0l0,0c-0.1,0-0.1,0-0.2,0h0.1h-0.1c-1.4,0-2.7,0-4.1,0c-0.2,0-0.3,0-0.6,0.1h-0.1
		c0.1,0,0.2-0.1,0.3-0.1c-0.3,0-0.8,0-1.2,0c-0.2,0-0.5,0-0.7,0c-0.3,0-0.8,0-1.2,0s-0.7,0-1,0c-0.8,0-1.6,0-2.4,0
		c-0.2,0-0.5,0-0.7-0.1c-2.2-1.3-3.3-3.7-5.1-5.2c-0.2-0.1-0.5-0.3-0.8-0.3h-26.8v5.3h21.3c0.3,0,0.7,0.1,0.9,0.3
		c4.3,4.1,8.3,7.9,12.3,11.7c0.3,0.3,0.8,0.5,1.2,0.3c5.5-1,10.1,0.8,12.2,5.2c1.7,3.5,1.4,7-0.8,10c-2.8,4-6.9,4.8-11.4,3.8
		c-2.4-0.5-4.1-2.1-5.7-3.7c-0.7-0.7-2-0.3-2.2,0.6c-0.9,3-2.3,5.7-4.2,8.3c-0.1,0.1-0.2,0.2-0.3,0.3l0,0c-0.1,0.1-0.2,0.2-0.3,0.3
		c-0.1,0.1-0.2,0.3-0.3,0.5c-2.7,2.6-5.6,4.7-9,6l0,0v0.1V590c-0.3,0.1-0.6,0.1-0.9,0.3c0,0,0,0.1,0.1,0.1c0,0,0-0.1-0.1-0.1
		c-3.1,1-5.7,1.3-6.6,1.2h-0.1l-0.1,0.1l0,0c-1.3-0.1-2.6-0.1-3.8-0.2l0,0h-2.2V623c4.4,0.3,8.8-0.1,13.1-0.2c2,0.1,2,0.1,1.9-2.1
		c0.3-3.1,0.6-6.2,0.9-9.3c0-0.6,0.5-1,1-1.2c1.5-0.2,2.9-0.8,4.3-1.5c1.3-0.5,2.6-1,3.8-1.6c0.5-0.2,1-0.1,1.4,0.2
		c2.8,2.3,5.5,4.7,8.3,7c0.5,0.3,1,0.5,1.6,0.1c2.7-1.5,5-3.3,7.1-5.3c1.6-1.2,3-2.6,4.4-4.3c0.3-0.5,0.3-1.2,0.1-1.6
		c-1.3-2-2.6-3.8-3.8-5.8c0-0.1,0-0.1-0.1-0.1c-0.1-0.1-0.1-0.2-0.2-0.3l0,0c-0.1-0.1-0.1-0.2-0.3-0.3l0,0c-0.1-0.2-0.2-0.3-0.3-0.6
		c-0.1-0.1-0.1-0.2-0.2-0.3l0,0c-0.1-0.1-0.1-0.2-0.2-0.3l0,0c-0.2-0.3-0.5-0.7-0.7-1c-0.3-0.6,0-0.9,0.3-1.4
		c1.3-2.2,2.4-4.4,3.7-6.5c0.3-0.5,0.6-1,1-1.7c2,0.1,4,0.2,6,0.3c1.9,0,3.7,0,5.7,0c0.5,0,0.9-0.2,1.2-0.6
		c1.6-2.6,3.6-10.2,3.5-14.8c0-0.6-0.3-1-0.9-1.3c-3.1-1-6.3-2.2-9.4-3.4c-0.5-0.1-0.8-0.6-0.8-1c-0.5-2.4-0.9-4.9-1.4-7.3
		c-0.1-0.8-0.9-1.7-0.1-2.7c1.9-1.4,3.7-2.8,5.6-4.3c7.2,0.5,11.6-4.5,12.2-9.7c0.5-4.3-2.7-9.2-7.4-10.7c-5-1.6-10.2,0.3-13,6.2
		c-0.2,0.5-0.7,0.8-1.3,0.8h-9.3c-0.3,0-0.7-0.1-1-0.5c-2.9-3.1-5.2-6.2-8.4-9.4h-2 M906.2,544.2c-2.9-0.1-5-2.6-4.9-5.6
		c-0.1-2.6,3.1-4.8,5.2-4.5c2.9,0.2,5,2.4,4.8,5.2C911.3,542.1,908.9,544.4,906.2,544.2z"/>
	
		<linearGradient id="SVGID_6_" gradientUnits="userSpaceOnUse" x1="1009.8923" y1="576.9099" x2="766.7103" y2="336.3947" gradientTransform="matrix(1 0 0 -1 0 1002)">
		<stop  offset="0" style="stop-color:#41ABDF"/>
		<stop  offset="0.1672" style="stop-color:#40A7DB"/>
		<stop  offset="0.35" style="stop-color:#3C99D0"/>
		<stop  offset="0.5403" style="stop-color:#3585BF"/>
		<stop  offset="0.7356" style="stop-color:#2E66A6"/>
		<stop  offset="0.9331" style="stop-color:#233F83"/>
		<stop  offset="1" style="stop-color:#263471"/>
	</linearGradient>
	<path class="st5" d="M883.2,572.1c2.2,2,5.8,1.5,7.7-0.8c1.7-2.3,1.5-5.5-0.8-7c-2.6-1.7-4.9-1.5-7.3,0.9c-2.6-2.8-5.1-5.5-7.4-8
		h-27.8v5.5h25.2C876.3,565.9,879.8,569.1,883.2,572.1z"/>
	
		<linearGradient id="SVGID_7_" gradientUnits="userSpaceOnUse" x1="976.9933" y1="610.1736" x2="733.8113" y2="369.6587" gradientTransform="matrix(1 0 0 -1 0 1002)">
		<stop  offset="0" style="stop-color:#41ABDF"/>
		<stop  offset="0.1672" style="stop-color:#40A7DB"/>
		<stop  offset="0.35" style="stop-color:#3C99D0"/>
		<stop  offset="0.5403" style="stop-color:#3585BF"/>
		<stop  offset="0.7356" style="stop-color:#2E66A6"/>
		<stop  offset="0.9331" style="stop-color:#233F83"/>
		<stop  offset="1" style="stop-color:#263471"/>
	</linearGradient>
	<path class="st6" d="M848.2,506h32.7v-5.9h-32.7V506z"/>
	<g>
		<linearGradient id="SVGID_8_" gradientUnits="userSpaceOnUse" x1="922.1768" y1="507.2792" x2="873.8882" y2="459.5201">
			<stop  offset="0" style="stop-color:#41ABDF"/>
			<stop  offset="0.1672" style="stop-color:#40A7DB"/>
			<stop  offset="0.35" style="stop-color:#3C99D0"/>
			<stop  offset="0.5403" style="stop-color:#3585BF"/>
			<stop  offset="0.7356" style="stop-color:#2E66A6"/>
			<stop  offset="0.9331" style="stop-color:#233F83"/>
			<stop  offset="1" style="stop-color:#263471"/>
		</linearGradient>
		<circle class="st7" cx="894.1" cy="479.5" r="10.9"/>
		<circle class="st8" cx="894.1" cy="479.5" r="4.7"/>
	</g>
	
		<linearGradient id="SVGID_9_" gradientUnits="userSpaceOnUse" x1="962.5836" y1="603.8114" x2="741.7313" y2="385.381" gradientTransform="matrix(1 0 0 -1 0 1002)">
		<stop  offset="0" style="stop-color:#41ABDF"/>
		<stop  offset="0.1672" style="stop-color:#40A7DB"/>
		<stop  offset="0.35" style="stop-color:#3C99D0"/>
		<stop  offset="0.5403" style="stop-color:#3585BF"/>
		<stop  offset="0.7356" style="stop-color:#2E66A6"/>
		<stop  offset="0.9331" style="stop-color:#233F83"/>
		<stop  offset="1" style="stop-color:#263471"/>
	</linearGradient>
	<path class="st9" d="M898.3,488.5L898.3,488.5 M883.3,477.3c-1.7,0-3.3,0-5,0c-3.3,0-5.3,0.8-7.4,3.5c-1,1.3-2,2.3-3.1,3.6l0,0
		h-19.3l0,0v5.6l0,0h22.1l0,0c2.1-2.3,4.2-4.8,6.3-7.1l0,0h6.7 M898.1,480.9L898.1,480.9"/>
	
		<linearGradient id="SVGID_10_" gradientUnits="userSpaceOnUse" x1="983.1644" y1="603.9341" x2="739.9824" y2="363.4191" gradientTransform="matrix(1 0 0 -1 0 1002)">
		<stop  offset="0" style="stop-color:#41ABDF"/>
		<stop  offset="0.1672" style="stop-color:#40A7DB"/>
		<stop  offset="0.35" style="stop-color:#3C99D0"/>
		<stop  offset="0.5403" style="stop-color:#3585BF"/>
		<stop  offset="0.7356" style="stop-color:#2E66A6"/>
		<stop  offset="0.9331" style="stop-color:#233F83"/>
		<stop  offset="1" style="stop-color:#263471"/>
	</linearGradient>
	
		<linearGradient id="SVGID_11_" gradientUnits="userSpaceOnUse" x1="763.0873" y1="387.9464" x2="765.4794" y2="387.9464" gradientTransform="matrix(1 0 0 -1 0 1002)">
		<stop  offset="0" style="stop-color:#FFFFFF"/>
		<stop  offset="1" style="stop-color:#FFFFFF"/>
	</linearGradient>
	<path class="st10" d="M765,614.2c0-0.1-0.1-0.2-0.1-0.3c-0.1,0-0.2,0-0.3,0C764.7,614,764.8,614.1,765,614.2
		C765,614.3,765,614.2,765,614.2z"/>
	
		<linearGradient id="SVGID_12_" gradientUnits="userSpaceOnUse" x1="891.2043" y1="405.9412" x2="891.2043" y2="405.9412" gradientTransform="matrix(1 0 0 -1 0 1002)">
		<stop  offset="0" style="stop-color:#41ABDF"/>
		<stop  offset="0.1672" style="stop-color:#40A7DB"/>
		<stop  offset="0.35" style="stop-color:#3C99D0"/>
		<stop  offset="0.5403" style="stop-color:#3585BF"/>
		<stop  offset="0.7356" style="stop-color:#2E66A6"/>
		<stop  offset="0.9331" style="stop-color:#233F83"/>
		<stop  offset="1" style="stop-color:#263471"/>
	</linearGradient>
	<path class="st11" d="M891.2,596.1L891.2,596.1L891.2,596.1L891.2,596.1z"/>
	
		<linearGradient id="SVGID_13_" gradientUnits="userSpaceOnUse" x1="994.5889" y1="592.3829" x2="751.4069" y2="351.868" gradientTransform="matrix(1 0 0 -1 0 1002)">
		<stop  offset="0" style="stop-color:#41ABDF"/>
		<stop  offset="0.1672" style="stop-color:#40A7DB"/>
		<stop  offset="0.35" style="stop-color:#3C99D0"/>
		<stop  offset="0.5403" style="stop-color:#3585BF"/>
		<stop  offset="0.7356" style="stop-color:#2E66A6"/>
		<stop  offset="0.9331" style="stop-color:#233F83"/>
		<stop  offset="1" style="stop-color:#263471"/>
	</linearGradient>
	<path class="st12" d="M848.5,514.3v5.5c8.1,0,30-0.1,38-0.1c1.2,0,2-0.3,2.7-1.2c4.8-5,9.4-10,14.2-15.1H919
		c2.8,5.5,7.2,7.8,12.3,6.5c4.7-1.2,7.9-5.2,7.9-10c0-4.5-3.5-9-7.9-10.1c-4.2-1-10.6,0.7-12.8,8H901c-5.1,5.4-10.1,10.7-15.2,16
		C878.1,513.9,856.4,514.3,848.5,514.3z M928.8,495.1c2.8,0,5,2.1,5,4.9c0,2.6-2.2,4.8-4.9,4.9c-2.7,0-5-2.2-4.9-5
		C924,497.4,926.3,495.1,928.8,495.1z"/>
	<g>
		<linearGradient id="SVGID_14_" gradientUnits="userSpaceOnUse" x1="943.1315" y1="476.1293" x2="894.8428" y2="428.3703">
			<stop  offset="0" style="stop-color:#41ABDF"/>
			<stop  offset="0.1672" style="stop-color:#40A7DB"/>
			<stop  offset="0.35" style="stop-color:#3C99D0"/>
			<stop  offset="0.5403" style="stop-color:#3585BF"/>
			<stop  offset="0.7356" style="stop-color:#2E66A6"/>
			<stop  offset="0.9331" style="stop-color:#233F83"/>
			<stop  offset="1" style="stop-color:#263471"/>
		</linearGradient>
		<circle class="st13" cx="915" cy="448.4" r="10.9"/>
		<circle class="st8" cx="915" cy="448.4" r="4.7"/>
	</g>
	<g>
		<linearGradient id="SVGID_15_" gradientUnits="userSpaceOnUse" x1="956.9538" y1="527.7508" x2="908.6653" y2="479.9918">
			<stop  offset="0" style="stop-color:#41ABDF"/>
			<stop  offset="0.1672" style="stop-color:#40A7DB"/>
			<stop  offset="0.35" style="stop-color:#3C99D0"/>
			<stop  offset="0.5403" style="stop-color:#3585BF"/>
			<stop  offset="0.7356" style="stop-color:#2E66A6"/>
			<stop  offset="0.9331" style="stop-color:#233F83"/>
			<stop  offset="1" style="stop-color:#263471"/>
		</linearGradient>
		<circle class="st14" cx="928.9" cy="500" r="10.9"/>
		<circle class="st8" cx="928.9" cy="500" r="4.7"/>
	</g>
	<g>
		<linearGradient id="SVGID_16_" gradientUnits="userSpaceOnUse" x1="934.4966" y1="566.1208" x2="886.2081" y2="518.3618">
			<stop  offset="0" style="stop-color:#41ABDF"/>
			<stop  offset="0.1672" style="stop-color:#40A7DB"/>
			<stop  offset="0.35" style="stop-color:#3C99D0"/>
			<stop  offset="0.5403" style="stop-color:#3585BF"/>
			<stop  offset="0.7356" style="stop-color:#2E66A6"/>
			<stop  offset="0.9331" style="stop-color:#233F83"/>
			<stop  offset="1" style="stop-color:#263471"/>
		</linearGradient>
		<circle class="st15" cx="906.4" cy="538.4" r="10.9"/>
		<circle class="st8" cx="906.4" cy="538.4" r="4.7"/>
	</g>
</g>
<g>
	<g>
		<linearGradient id="SVGID_17_" gradientUnits="userSpaceOnUse" x1="686.9119" y1="457.3469" x2="98.1181" y2="484.6534">
			<stop  offset="0" style="stop-color:#41ABDF"/>
			<stop  offset="0.1672" style="stop-color:#40A7DB"/>
			<stop  offset="0.35" style="stop-color:#3C99D0"/>
			<stop  offset="0.5403" style="stop-color:#3585BF"/>
			<stop  offset="0.7356" style="stop-color:#2E66A6"/>
			<stop  offset="0.9331" style="stop-color:#233F83"/>
			<stop  offset="1" style="stop-color:#263471"/>
		</linearGradient>
		<path class="st16" d="M135.1,497.5l-4.5,13.3h-12.3l19.5-57.6h15.6l20.4,57.6h-13.1l-4.8-13.3L135.1,497.5L135.1,497.5z
			 M153.4,487.3c-4.1-12.2-6.7-19.9-8.1-25.1h-0.1c-1.4,5.6-4.3,14.7-7.6,25.1H153.4z"/>
		<linearGradient id="SVGID_18_" gradientUnits="userSpaceOnUse" x1="687.0201" y1="459.6789" x2="98.2263" y2="486.9854">
			<stop  offset="0" style="stop-color:#41ABDF"/>
			<stop  offset="0.1672" style="stop-color:#40A7DB"/>
			<stop  offset="0.35" style="stop-color:#3C99D0"/>
			<stop  offset="0.5403" style="stop-color:#3585BF"/>
			<stop  offset="0.7356" style="stop-color:#2E66A6"/>
			<stop  offset="0.9331" style="stop-color:#233F83"/>
			<stop  offset="1" style="stop-color:#263471"/>
		</linearGradient>
		<path class="st17" d="M230.6,493c-2.3,10.8-10.4,18.6-24.8,18.6c-18.3,0-26.9-12.9-26.9-29.3c0-15.8,8.9-30,27.5-30
			c15.4,0,22.8,9,24.1,18.7h-12.4c-1.1-4.4-4.3-8.9-12.2-8.9c-10.2,0-14.2,9.3-14.2,19.7c0,9.8,3.4,20,14.5,20
			c8.1,0,10.7-5.5,11.8-8.8H230.6L230.6,493z"/>
		<linearGradient id="SVGID_19_" gradientUnits="userSpaceOnUse" x1="687.1476" y1="462.4312" x2="98.354" y2="489.7377">
			<stop  offset="0" style="stop-color:#41ABDF"/>
			<stop  offset="0.1672" style="stop-color:#40A7DB"/>
			<stop  offset="0.35" style="stop-color:#3C99D0"/>
			<stop  offset="0.5403" style="stop-color:#3585BF"/>
			<stop  offset="0.7356" style="stop-color:#2E66A6"/>
			<stop  offset="0.9331" style="stop-color:#233F83"/>
			<stop  offset="1" style="stop-color:#263471"/>
		</linearGradient>
		<path class="st18" d="M290.1,493c-2.3,10.8-10.4,18.6-24.8,18.6c-18.3,0-26.9-12.9-26.9-29.3c0-15.8,8.9-30,27.5-30
			c15.4,0,22.8,9,24.1,18.7h-12.4c-1.1-4.4-4.3-8.9-12.2-8.9c-10.2,0-14.2,9.3-14.2,19.7c0,9.8,3.4,20,14.5,20
			c8.1,0,10.7-5.5,11.8-8.8H290.1L290.1,493z"/>
		<linearGradient id="SVGID_20_" gradientUnits="userSpaceOnUse" x1="687.2687" y1="465.042" x2="98.475" y2="492.3485">
			<stop  offset="0" style="stop-color:#41ABDF"/>
			<stop  offset="0.1672" style="stop-color:#40A7DB"/>
			<stop  offset="0.35" style="stop-color:#3C99D0"/>
			<stop  offset="0.5403" style="stop-color:#3585BF"/>
			<stop  offset="0.7356" style="stop-color:#2E66A6"/>
			<stop  offset="0.9331" style="stop-color:#233F83"/>
			<stop  offset="1" style="stop-color:#263471"/>
		</linearGradient>
		<path class="st19" d="M309,494c1.3,5.7,5.5,8.3,12.2,8.3c6.7,0,9.6-2.6,9.6-6.9c0-4.7-2.8-6.7-12.6-9
			c-15.7-3.6-19.5-9.4-19.5-17.1c0-10,7.6-16.8,21.1-16.8c15.3,0,21.4,8.2,22.2,16.7h-12.5c-0.6-3.5-2.6-7.5-10-7.5
			c-5.1,0-8.1,2.1-8.1,6.2c0,4,2.4,5.6,11.8,7.7c16.8,3.9,20.5,10.2,20.5,18.3c0,10.5-7.9,17.7-23.3,17.7
			c-14.6,0-22.3-7.2-23.7-17.7L309,494L309,494z"/>
		<linearGradient id="SVGID_21_" gradientUnits="userSpaceOnUse" x1="687.3575" y1="466.9549" x2="98.5637" y2="494.2614">
			<stop  offset="0" style="stop-color:#41ABDF"/>
			<stop  offset="0.1672" style="stop-color:#40A7DB"/>
			<stop  offset="0.35" style="stop-color:#3C99D0"/>
			<stop  offset="0.5403" style="stop-color:#3585BF"/>
			<stop  offset="0.7356" style="stop-color:#2E66A6"/>
			<stop  offset="0.9331" style="stop-color:#233F83"/>
			<stop  offset="1" style="stop-color:#263471"/>
		</linearGradient>
		<path class="st20" d="M366.4,510.8v-20.4c0-0.7-0.1-1.2-0.5-1.8L346,453.2h14.2c4.4,8.7,10.2,20.2,13.1,26.5
			c2.5-6,8.8-18.1,13.2-26.5h13l-20.1,35.2c-0.3,0.4-0.5,0.7-0.5,1.8v20.6H366.4z"/>
		<linearGradient id="SVGID_22_" gradientUnits="userSpaceOnUse" x1="687.4937" y1="469.8897" x2="98.6998" y2="497.196">
			<stop  offset="0" style="stop-color:#41ABDF"/>
			<stop  offset="0.1672" style="stop-color:#40A7DB"/>
			<stop  offset="0.35" style="stop-color:#3C99D0"/>
			<stop  offset="0.5403" style="stop-color:#3585BF"/>
			<stop  offset="0.7356" style="stop-color:#2E66A6"/>
			<stop  offset="0.9331" style="stop-color:#233F83"/>
			<stop  offset="1" style="stop-color:#263471"/>
		</linearGradient>
		<path class="st21" d="M413.8,494c1.3,5.7,5.5,8.3,12.2,8.3s9.6-2.6,9.6-6.9c0-4.7-2.8-6.7-12.6-9c-15.7-3.6-19.5-9.4-19.5-17.1
			c0-10,7.6-16.8,21.1-16.8c15.3,0,21.4,8.2,22.2,16.7h-12.6c-0.6-3.5-2.6-7.5-10-7.5c-5.1,0-8.1,2.1-8.1,6.2c0,4,2.4,5.6,11.8,7.7
			c16.8,3.9,20.5,10.2,20.5,18.3c0,10.5-7.9,17.7-23.3,17.7c-14.6,0-22.3-7.2-23.7-17.7L413.8,494L413.8,494z"/>
		<linearGradient id="SVGID_23_" gradientUnits="userSpaceOnUse" x1="687.581" y1="471.7752" x2="98.7873" y2="499.0817">
			<stop  offset="0" style="stop-color:#41ABDF"/>
			<stop  offset="0.1672" style="stop-color:#40A7DB"/>
			<stop  offset="0.35" style="stop-color:#3C99D0"/>
			<stop  offset="0.5403" style="stop-color:#3585BF"/>
			<stop  offset="0.7356" style="stop-color:#2E66A6"/>
			<stop  offset="0.9331" style="stop-color:#233F83"/>
			<stop  offset="1" style="stop-color:#263471"/>
		</linearGradient>
		<path class="st22" d="M470,463.4h-17.5v-10.2H500v10.2h-17.5v47.4h-12.4L470,463.4L470,463.4z"/>
		<linearGradient id="SVGID_24_" gradientUnits="userSpaceOnUse" x1="687.7069" y1="474.4891" x2="98.9131" y2="501.7956">
			<stop  offset="0" style="stop-color:#41ABDF"/>
			<stop  offset="0.1672" style="stop-color:#40A7DB"/>
			<stop  offset="0.35" style="stop-color:#3C99D0"/>
			<stop  offset="0.5403" style="stop-color:#3585BF"/>
			<stop  offset="0.7356" style="stop-color:#2E66A6"/>
			<stop  offset="0.9331" style="stop-color:#233F83"/>
			<stop  offset="1" style="stop-color:#263471"/>
		</linearGradient>
		<path class="st23" d="M547.3,485.9h-27.6v14.6h30.4l-1.5,10.2h-41.1v-57.6h40.9v10.2h-28.7v12.3h27.6V485.9L547.3,485.9z"/>
		<linearGradient id="SVGID_25_" gradientUnits="userSpaceOnUse" x1="687.8467" y1="477.503" x2="99.0529" y2="504.8095">
			<stop  offset="0" style="stop-color:#41ABDF"/>
			<stop  offset="0.1672" style="stop-color:#40A7DB"/>
			<stop  offset="0.35" style="stop-color:#3C99D0"/>
			<stop  offset="0.5403" style="stop-color:#3585BF"/>
			<stop  offset="0.7356" style="stop-color:#2E66A6"/>
			<stop  offset="0.9331" style="stop-color:#233F83"/>
			<stop  offset="1" style="stop-color:#263471"/>
		</linearGradient>
		<path class="st24" d="M607.5,489.2c0-9.9,0.2-20.9,0.4-27.3h-0.4c-2.7,11.8-8.4,30.9-14,49H583c-4.2-15.8-10.2-37.6-12.7-49.1
			h-0.4c0.5,6.8,0.8,18.7,0.8,28.5v20.7h-11.4v-57.6h18.6c4.5,15,9.6,33.9,11.3,42.5h0.1c1.4-7.6,7.8-27.8,12.5-42.5h17.9v57.6
			h-12.1L607.5,489.2L607.5,489.2z"/>
	</g>
</g>
<g>
	<path class="st25" d="M114.7,538.7h5.4v28.4h-5.4V538.7z M116.6,538.7h17.1v5.1h-17.1V538.7z M116.6,550.4h14.9v5.1h-14.9V550.4z
		 M116.6,561.9h17.1v5.1h-17.1V561.9z"/>
	<path class="st25" d="M138.6,538.7h5.4v28.4h-5.4V538.7z M140.8,550.5h9.9c0.5,0,1-0.2,1.5-0.4s0.7-0.7,1-1.1
		c0.3-0.5,0.3-1.1,0.3-1.7c0-0.7-0.1-1.2-0.3-1.7s-0.5-0.9-1-1.1s-0.9-0.4-1.5-0.4h-9.9v-5.1h10.3c1.6,0,3,0.3,4.1,1
		c1.2,0.7,2.1,1.7,2.8,3c0.6,1.3,1,2.8,1,4.4s-0.3,3.2-1,4.4c-0.6,1.3-1.6,2.3-2.8,3c-1.2,0.7-2.5,1-4.1,1h-10.3V550.5z
		 M146.7,554.8l5.7-0.9l7.6,13.2h-6.5L146.7,554.8z"/>
	<path class="st25" d="M164.7,538.7h5.4v28.4h-5.4V538.7z M167.1,550.9h9c0.6,0,1.2-0.2,1.6-0.4c0.5-0.3,0.9-0.7,1.1-1.2
		c0.3-0.5,0.4-1.1,0.4-1.8s-0.2-1.3-0.4-1.8c-0.3-0.5-0.6-1-1.1-1.2c-0.5-0.3-1-0.4-1.7-0.4h-9v-5.1h8.9c1.7,0,3.3,0.3,4.7,1
		c1.3,0.7,2.4,1.7,3.1,3c0.7,1.3,1.1,2.9,1.1,4.6s-0.3,3.2-1.1,4.5c-0.8,1.3-1.8,2.3-3.1,3c-1.3,0.7-2.9,1-4.7,1H167L167.1,550.9
		L167.1,550.9z"/>
	<path class="st25" d="M208.3,538.7h3.4l10.9,28.4h-5.7l-6.8-19.4l-6.8,19.4h-5.7L208.3,538.7z M202.7,557.4h14.9v5.1h-14.9V557.4z"
		/>
	<path class="st25" d="M228.6,566.1c-1.6-0.9-2.7-2-3.5-3.6c-0.8-1.6-1.2-3.5-1.2-5.7v-7.8c0-2.3,0.4-4.2,1.2-5.7
		c0.8-1.6,2-2.8,3.5-3.6c1.6-0.9,3.4-1.2,5.6-1.2c1.8,0,3.4,0.3,4.8,1.1s2.6,1.9,3.5,3.4c1,1.5,1.6,3.2,1.9,5.3h-5.6
		c-0.2-1-0.5-1.7-1-2.4c-0.4-0.7-1-1.1-1.6-1.6c-0.6-0.3-1.3-0.5-2.1-0.5c-1,0-1.8,0.2-2.5,0.6c-0.7,0.4-1.2,1-1.6,1.8
		c-0.3,0.8-0.5,1.7-0.5,2.9v7.8c0,1.1,0.2,2.1,0.5,2.9c0.3,0.8,0.9,1.4,1.6,1.8c0.7,0.4,1.6,0.6,2.5,0.6c0.8,0,1.5-0.2,2.1-0.5
		c0.6-0.3,1.1-0.9,1.6-1.5c0.4-0.6,0.8-1.5,1-2.4h5.6c-0.3,2.1-1,3.8-1.9,5.3c-1,1.5-2.1,2.6-3.5,3.4c-1.4,0.8-3,1.1-4.8,1.1
		C232,567.4,230.2,566.9,228.6,566.1z"/>
	<path class="st25" d="M252.6,566.1c-1.6-0.9-2.7-2-3.5-3.6c-0.8-1.6-1.2-3.5-1.2-5.7v-7.8c0-2.3,0.4-4.2,1.2-5.7
		c0.8-1.6,2-2.8,3.5-3.6c1.6-0.9,3.4-1.2,5.6-1.2c1.8,0,3.4,0.3,4.8,1.1s2.6,1.9,3.5,3.4c1,1.5,1.6,3.2,1.9,5.3h-5.6
		c-0.2-1-0.5-1.7-1-2.4c-0.4-0.7-1-1.1-1.6-1.6c-0.6-0.3-1.3-0.5-2.1-0.5c-1,0-1.8,0.2-2.5,0.6c-0.7,0.4-1.2,1-1.6,1.8
		c-0.3,0.8-0.5,1.7-0.5,2.9v7.8c0,1.1,0.2,2.1,0.5,2.9c0.3,0.8,0.9,1.4,1.6,1.8c0.7,0.4,1.6,0.6,2.5,0.6c0.8,0,1.5-0.2,2.1-0.5
		s1.1-0.9,1.6-1.5c0.4-0.6,0.8-1.5,1-2.4h5.6c-0.3,2.1-1,3.8-1.9,5.3c-1,1.5-2.1,2.6-3.5,3.4c-1.4,0.8-3,1.1-4.8,1.1
		C256,567.4,254.2,566.9,252.6,566.1z"/>
	<path class="st25" d="M276.7,566.1c-1.6-0.9-2.8-2.1-3.6-3.6c-0.9-1.6-1.3-3.4-1.3-5.5v-8.1c0-2.1,0.4-3.9,1.3-5.5s2.1-2.8,3.6-3.6
		s3.4-1.3,5.5-1.3c2.1,0,3.9,0.4,5.5,1.3c1.6,0.9,2.8,2.1,3.6,3.6c0.9,1.6,1.3,3.4,1.3,5.5v8.1c0,2.1-0.4,3.9-1.3,5.5
		c-0.9,1.6-2.1,2.8-3.6,3.6s-3.4,1.3-5.5,1.3C280.1,567.4,278.3,566.9,276.7,566.1z M284.7,561.4c0.7-0.4,1.3-1,1.6-1.7
		c0.4-0.8,0.6-1.6,0.6-2.6v-8.3c0-1-0.2-1.8-0.6-2.6c-0.4-0.8-1-1.3-1.6-1.7c-0.7-0.4-1.6-0.6-2.5-0.6s-1.8,0.2-2.5,0.6
		c-0.7,0.4-1.3,1-1.6,1.7c-0.4,0.8-0.6,1.6-0.6,2.6v8.3c0,1,0.2,1.8,0.6,2.6s1,1.3,1.6,1.7c0.7,0.4,1.6,0.6,2.5,0.6
		C283.1,562,284,561.8,284.7,561.4z"/>
	<path class="st25" d="M301.8,566.1c-1.6-0.9-2.7-2-3.6-3.6c-0.8-1.6-1.2-3.5-1.2-5.7v-18.1h5.4v18.2c0,1.6,0.4,2.9,1.3,3.8
		c0.9,0.9,2.1,1.3,3.6,1.3c1.6,0,2.9-0.4,3.7-1.3s1.3-2.2,1.3-3.8v-18.2h5.4v18.1c0,2.3-0.4,4.2-1.2,5.7c-0.8,1.6-2,2.8-3.6,3.6
		s-3.4,1.2-5.6,1.2C305.1,567.3,303.3,566.9,301.8,566.1z"/>
	<path class="st25" d="M323.2,538.7h6.5l10.6,21.7l-0.4,0.5v-22.2h5.1V567h-6.6l-10.5-21.4l0.4-0.5V567h-5.1V538.7z"/>
	<path class="st25" d="M348.8,538.7h20.8v5.1h-20.8V538.7z M356.5,541.1h5.4v26h-5.4V541.1z"/>
	<path class="st25" d="M377.9,567h-5.6v-28.4h5.6V567z"/>
	<path class="st25" d="M383.7,538.7h6.5l10.6,21.7l-0.4,0.5v-22.2h5.1V567h-6.6l-10.5-21.4l0.4-0.5V567h-5.1V538.7z"/>
	<path class="st25" d="M431.8,551.2v5.6c0,2.1-0.4,4-1.3,5.6c-0.9,1.6-2.1,2.9-3.6,3.7c-1.6,0.9-3.4,1.3-5.4,1.3
		c-2.1,0-3.9-0.4-5.5-1.2c-1.6-0.9-2.8-2-3.6-3.5c-0.9-1.5-1.3-3.3-1.3-5.2v-8.3c0-2.1,0.4-4,1.3-5.6c0.9-1.6,2.1-2.9,3.6-3.7
		c1.6-0.9,3.4-1.3,5.4-1.3c1.6,0,3.2,0.3,4.7,1c1.4,0.7,2.6,1.6,3.6,3c1,1.3,1.6,2.8,1.9,4.4h-5.7c-0.2-0.6-0.5-1.1-1-1.6
		c-0.4-0.4-1-0.8-1.6-1c-0.6-0.3-1.2-0.3-1.9-0.3c-1,0-1.8,0.2-2.5,0.6c-0.7,0.4-1.3,1-1.6,1.7c-0.4,0.8-0.6,1.6-0.6,2.7v8.3
		c0,0.9,0.2,1.6,0.6,2.3c0.4,0.7,1,1.2,1.7,1.6s1.6,0.5,2.6,0.5c1,0,1.8-0.2,2.5-0.6c0.7-0.4,1.3-1,1.6-1.7c0.3-0.8,0.6-1.6,0.6-2.7
		v-0.4H422v-5.1L431.8,551.2L431.8,551.2z"/>
	<path class="st25" d="M453.2,566.9c-1.3-0.3-2.5-0.7-3.6-1.2s-2.2-1.1-3-1.9l2.5-4.4c1.1,0.9,2.3,1.6,3.8,2.1
		c1.4,0.5,2.9,0.7,4.4,0.7c1.7,0,3.1-0.3,4.1-0.9s1.5-1.4,1.5-2.5l0,0c0-0.8-0.2-1.4-0.6-1.8c-0.4-0.4-1-0.8-1.6-1
		c-0.7-0.2-1.6-0.4-2.7-0.6h-0.1h-0.1l-0.4-0.1c-1.9-0.3-3.5-0.7-4.7-1.1c-1.2-0.4-2.3-1.2-3.2-2.3s-1.3-2.7-1.3-4.8l0,0
		c0-1.8,0.4-3.4,1.2-4.7c0.8-1.3,2-2.3,3.6-3c1.6-0.7,3.5-1,5.6-1c1,0,2.1,0.1,3.1,0.3c1,0.3,2.1,0.6,3.1,1s2,1,2.9,1.6l-2.3,4.5
		c-1.1-0.8-2.3-1.3-3.4-1.7c-1.1-0.4-2.3-0.6-3.4-0.6c-1.6,0-2.9,0.3-3.8,0.8c-0.9,0.5-1.3,1.3-1.3,2.3l0,0c0,0.8,0.3,1.5,0.7,1.9
		c0.4,0.4,1,0.8,1.7,1c0.7,0.3,1.6,0.4,2.9,0.7c0.1,0,0.1,0,0.2,0c0.1,0,0.1,0,0.2,0s0.2,0,0.3,0.1c0.1,0,0.2,0,0.3,0.1
		c1.8,0.3,3.3,0.8,4.5,1.3c1.2,0.5,2.2,1.3,3,2.4c0.8,1.1,1.2,2.6,1.2,4.5l0,0c0,1.8-0.4,3.4-1.3,4.6c-0.9,1.3-2.1,2.3-3.7,3
		c-1.6,0.7-3.6,1-5.8,1C455.8,567.4,454.5,567.2,453.2,566.9z"/>
	<path class="st25" d="M476.4,566.1c-1.6-0.9-2.8-2.1-3.6-3.6c-0.9-1.6-1.3-3.4-1.3-5.5v-8.1c0-2.1,0.4-3.9,1.3-5.5s2.1-2.8,3.6-3.6
		c1.6-0.9,3.4-1.3,5.5-1.3c2.1,0,3.9,0.4,5.5,1.3c1.6,0.9,2.8,2.1,3.6,3.6s1.3,3.4,1.3,5.5v8.1c0,2.1-0.4,3.9-1.3,5.5
		c-0.9,1.6-2.1,2.8-3.6,3.6c-1.6,0.9-3.4,1.3-5.5,1.3C479.7,567.4,477.9,566.9,476.4,566.1z M484.3,561.4c0.7-0.4,1.3-1,1.6-1.7
		c0.4-0.8,0.6-1.6,0.6-2.6v-8.3c0-1-0.2-1.8-0.6-2.6c-0.4-0.8-1-1.3-1.6-1.7c-0.7-0.4-1.6-0.6-2.5-0.6s-1.8,0.2-2.5,0.6
		c-0.7,0.4-1.3,1-1.6,1.7c-0.4,0.8-0.6,1.6-0.6,2.6v8.3c0,1,0.2,1.8,0.6,2.6c0.4,0.8,1,1.3,1.6,1.7c0.7,0.4,1.6,0.6,2.5,0.6
		S483.6,561.8,484.3,561.4z"/>
	<path class="st25" d="M497.4,538.7h5.4v28.4h-5.4V538.7z M499.8,561.9h16.6v5.1h-16.6V561.9z"/>
	<path class="st25" d="M523.8,566.1c-1.6-0.9-2.7-2-3.6-3.6c-0.8-1.6-1.2-3.5-1.2-5.7v-18.1h5.4v18.2c0,1.6,0.4,2.9,1.3,3.8
		c0.9,0.9,2.1,1.3,3.6,1.3s2.9-0.4,3.7-1.3s1.3-2.2,1.3-3.8v-18.2h5.4v18.1c0,2.3-0.4,4.2-1.2,5.7c-0.8,1.6-2,2.8-3.6,3.6
		s-3.4,1.2-5.6,1.2S525.4,566.9,523.8,566.1z"/>
	<path class="st25" d="M541.8,538.7h20.8v5.1h-20.8V538.7z M549.5,541.1h5.4v26h-5.4V541.1z"/>
	<path class="st25" d="M570.8,567h-5.6v-28.4h5.6V567z"/>
	<path class="st25" d="M581.1,566.1c-1.6-0.9-2.8-2.1-3.6-3.6c-0.9-1.6-1.3-3.4-1.3-5.5v-8.1c0-2.1,0.4-3.9,1.3-5.5s2.1-2.8,3.6-3.6
		s3.4-1.3,5.5-1.3c2.1,0,3.9,0.4,5.5,1.3s2.8,2.1,3.6,3.6s1.3,3.4,1.3,5.5v8.1c0,2.1-0.4,3.9-1.3,5.5c-0.9,1.6-2.1,2.8-3.6,3.6
		s-3.4,1.3-5.5,1.3C584.4,567.4,582.6,566.9,581.1,566.1z M589,561.4c0.7-0.4,1.3-1,1.6-1.7c0.3-0.8,0.6-1.6,0.6-2.6v-8.3
		c0-1-0.2-1.8-0.6-2.6c-0.4-0.8-1-1.3-1.6-1.7c-0.7-0.4-1.6-0.6-2.5-0.6c-1,0-1.8,0.2-2.5,0.6c-0.7,0.4-1.3,1-1.6,1.7
		c-0.3,0.8-0.6,1.6-0.6,2.6v8.3c0,1,0.2,1.8,0.6,2.6c0.4,0.8,1,1.3,1.6,1.7c0.7,0.4,1.6,0.6,2.5,0.6
		C587.4,562,588.3,561.8,589,561.4z"/>
	<path class="st25" d="M602.1,538.7h6.5l10.6,21.7l-0.4,0.5v-22.2h5.1V567h-6.6l-10.5-21.4l0.4-0.5V567h-5.1V538.7L602.1,538.7z"/>
</g>
<g class="st26">
	<path class="st27" d="M49.5,558.3h7.2v38.3h-7.2V558.3z M52.1,558.3h23.1v7H52.1V558.3z M52.1,574.1h20.2v7H52.1V574.1z
		 M52.1,589.7h23.1v7H52.1V589.7z"/>
	<path class="st27" d="M81.8,558.3H89v38.4h-7.2V558.3z M84.7,574.3H98c0.7,0,1.4-0.2,2-0.6c0.6-0.4,1-0.9,1.3-1.6
		c0.3-0.7,0.5-1.5,0.5-2.4s-0.2-1.7-0.5-2.4s-0.7-1.2-1.3-1.6c-0.6-0.4-1.2-0.6-2-0.6H84.7v-7h13.9c2.1,0,4,0.5,5.6,1.4
		s2.8,2.3,3.7,4c0.9,1.7,1.3,3.7,1.3,6s-0.4,4.3-1.3,6s-2.1,3.1-3.7,4s-3.5,1.4-5.6,1.4H84.7V574.3z M92.7,580.1l7.7-1.2l10.3,17.8
		H102L92.7,580.1z"/>
	<path class="st27" d="M117,558.3h7.2v38.3H117V558.3z M120.3,574.8h12.3c0.9,0,1.6-0.2,2.3-0.6c0.7-0.4,1.2-1,1.5-1.7
		s0.6-1.5,0.6-2.5c0-0.9-0.2-1.8-0.5-2.5c-0.4-0.7-0.9-1.3-1.5-1.7c-0.7-0.4-1.4-0.6-2.3-0.6h-12.3v-7h12.1c2.4,0,4.5,0.5,6.3,1.5
		s3.2,2.4,4.2,4.1s1.5,3.8,1.5,6.2s-0.5,4.4-1.5,6.2s-2.4,3.1-4.2,4.1s-3.9,1.5-6.3,1.5h-12.1v-7H120.3z"/>
	<path class="st27" d="M176.1,558.3h4.6l14.7,38.3h-7.8l-9.2-26.2l-9.2,26.2h-7.8L176.1,558.3z M168.5,583.6h20.2v7h-20.2V583.6z"/>
	<path class="st27" d="M204.4,595.6c-1.9-1-3.3-2.4-4.2-4.3c-1-1.9-1.5-4.2-1.5-6.9v-2.9c0-2.7,0.5-4.9,1.5-6.8
		c1-1.9,2.4-3.3,4.2-4.3c1.9-1,4.1-1.5,6.7-1.5c1.5,0,2.9,0.2,4.2,0.5s2.5,0.8,3.6,1.5s1.9,1.4,2.6,2.4l-4.7,4.5
		c-0.7-0.6-1.5-1.1-2.3-1.4c-0.9-0.3-1.8-0.5-2.8-0.5c-1.8,0-3.2,0.5-4.2,1.5s-1.5,2.4-1.5,4.1v2.9c0,1.8,0.5,3.2,1.5,4.2
		s2.4,1.5,4.2,1.5c1,0,2-0.2,2.8-0.6s1.7-0.9,2.3-1.6l4.7,4.8c-0.7,0.9-1.6,1.7-2.7,2.3s-2.2,1.1-3.6,1.5s-2.7,0.5-4.2,0.5
		C208.5,597.1,206.3,596.6,204.4,595.6z"/>
	<path class="st27" d="M231.3,595.6c-1.9-1-3.3-2.4-4.2-4.3c-1-1.9-1.5-4.2-1.5-6.9v-2.9c0-2.7,0.5-4.9,1.5-6.8
		c1-1.9,2.4-3.3,4.2-4.3c1.9-1,4.1-1.5,6.7-1.5c1.5,0,2.9,0.2,4.2,0.5s2.5,0.8,3.6,1.5s1.9,1.4,2.6,2.4l-4.7,4.5
		c-0.7-0.6-1.5-1.1-2.3-1.4c-0.9-0.3-1.8-0.5-2.8-0.5c-1.8,0-3.2,0.5-4.2,1.5s-1.5,2.4-1.5,4.1v2.9c0,1.8,0.5,3.2,1.5,4.2
		s2.4,1.5,4.2,1.5c1,0,2-0.2,2.8-0.6s1.7-0.9,2.3-1.6l4.7,4.8c-0.7,0.9-1.6,1.7-2.7,2.3s-2.2,1.1-3.6,1.5s-2.7,0.5-4.2,0.5
		C235.4,597.1,233.2,596.6,231.3,595.6z"/>
	<path class="st27" d="M258,595.7c-1.8-0.9-3.1-2.3-4-4.1s-1.4-3.9-1.4-6.4v-4.5c0-2.5,0.5-4.6,1.4-6.4c0.9-1.8,2.3-3.1,4-4
		c1.8-0.9,3.9-1.4,6.4-1.4s4.6,0.5,6.4,1.4s3.1,2.3,4,4c0.9,1.8,1.4,3.9,1.4,6.4v4.5c0,2.5-0.5,4.6-1.4,6.4c-0.9,1.8-2.3,3.1-4,4
		s-3.9,1.4-6.4,1.4C261.9,597.1,259.7,596.6,258,595.7z M267.7,588.8c0.8-0.9,1.2-2.1,1.2-3.6v-4.5c0-1.5-0.4-2.7-1.2-3.6
		c-0.8-0.8-1.9-1.3-3.4-1.3c-1.4,0-2.6,0.4-3.4,1.3c-0.8,0.8-1.2,2-1.2,3.6v4.5c0,1.5,0.4,2.7,1.2,3.6s1.9,1.3,3.4,1.3
		C265.8,590.1,266.9,589.7,267.7,588.8z"/>
	<path class="st27" d="M289.3,585.9c0,1.3,0.4,2.3,1.1,3.1c0.7,0.7,1.8,1.1,3.2,1.1c1.4,0,2.4-0.4,3.1-1.1c0.7-0.7,1.1-1.8,1.1-3.2
		l0.4,6c-0.5,1.5-1.4,2.8-2.5,3.8s-2.6,1.5-4.3,1.5c-2.9,0-5.2-0.9-6.8-2.8c-1.6-1.9-2.4-4.6-2.4-8v-16.9h7.2v16.5H289.3z
		 M297.8,569.3h7.2v27.4h-7.2V569.3z"/>
	<path class="st27" d="M312.1,569.3h7.2v27.4h-7.2V569.3z M328,580.1c0-1.3-0.4-2.4-1.1-3.1s-1.9-1.1-3.3-1.1
		c-1.3,0-2.4,0.4-3.1,1.1c-0.7,0.7-1.1,1.8-1.1,3.2l-0.6-6.1c0.8-1.7,1.8-3,3-3.9s2.6-1.3,4.3-1.3c2.9,0,5.1,1,6.7,2.9
		s2.4,4.7,2.4,8.2v16.6H328V580.1z"/>
	<path class="st27" d="M340.2,569.3h13.4v6.2h-13.4V569.3z M344.7,595c-1.1-1.2-1.7-3-1.7-5.4v-28.2h7.2v26.4c0,0.7,0.1,1.2,0.4,1.5
		s0.6,0.5,1.2,0.5h1.8v7H350C347.6,596.8,345.8,596.2,344.7,595z"/>
	<path class="st27" d="M359.5,558.3h7.2v7.2h-7.2V558.3z M359.5,569.3h7.2v27.4h-7.2V569.3z"/>
	<path class="st27" d="M373.5,569.3h7.2v27.4h-7.2V569.3z M389.3,580.1c0-1.3-0.4-2.4-1.1-3.1s-1.9-1.1-3.3-1.1
		c-1.3,0-2.4,0.4-3.1,1.1c-0.7,0.7-1.1,1.8-1.1,3.2l-0.6-6.1c0.8-1.7,1.8-3,3-3.9s2.6-1.3,4.3-1.3c2.9,0,5.1,1,6.7,2.9
		s2.4,4.7,2.4,8.2v16.6h-7.2L389.3,580.1L389.3,580.1z"/>
	<path class="st27" d="M407.1,595.7c-1.4-0.9-2.4-2.3-3.2-4c-0.7-1.8-1.1-3.9-1.1-6.4v-4.4c0-2.5,0.4-4.7,1.1-6.5s1.8-3.2,3.2-4.1
		c1.4-0.9,3-1.4,5-1.4c1.5,0,2.8,0.4,4,1.3c1.2,0.9,2.2,2.1,2.9,3.7l-0.6,6.1c0-0.9-0.2-1.7-0.5-2.4s-0.8-1.1-1.4-1.5
		c-0.6-0.3-1.3-0.5-2.2-0.5c-1.4,0-2.4,0.5-3.2,1.4c-0.7,0.9-1.1,2.2-1.1,3.9v4.4c0,1.6,0.4,2.9,1.1,3.8c0.7,0.9,1.8,1.3,3.2,1.3
		c0.9,0,1.6-0.2,2.2-0.5s1.1-0.8,1.4-1.5s0.5-1.4,0.5-2.3l0.4,6.2c-0.6,1.5-1.4,2.6-2.6,3.5c-1.2,0.8-2.5,1.2-4.1,1.2
		C410.1,597.1,408.4,596.6,407.1,595.7z M407.5,606.6c-1.7-0.8-3-1.8-4-3.2l4.9-4.5c0.6,0.7,1.4,1.2,2.2,1.5
		c0.9,0.4,1.8,0.5,2.7,0.5c1.5,0,2.7-0.4,3.7-1.2s1.4-2,1.4-3.4v-27.1h7.2v26.6c0,2.5-0.5,4.7-1.4,6.5c-1,1.8-2.4,3.2-4.2,4.1
		c-1.8,0.9-4.1,1.4-6.7,1.4C411.1,607.8,409.2,607.4,407.5,606.6z"/>
	<path class="st27" d="M454.4,596.5c-1.7-0.4-3.4-0.9-4.9-1.6c-1.5-0.7-2.9-1.6-4.1-2.6l3.3-6c1.5,1.2,3.2,2.1,5.1,2.8s3.9,1,6,1
		c2.4,0,4.2-0.4,5.5-1.2s2-1.9,2-3.4l0,0c0-1-0.3-1.8-0.9-2.4s-1.3-1-2.3-1.3c-0.9-0.3-2.1-0.5-3.6-0.8c-0.1,0-0.1,0-0.1,0h-0.1
		l-0.6-0.1c-2.6-0.4-4.7-0.9-6.4-1.5c-1.7-0.6-3.1-1.7-4.3-3.2c-1.2-1.5-1.8-3.7-1.8-6.5l0,0c0-2.5,0.6-4.6,1.7-6.4s2.7-3.1,4.8-4
		c2.1-0.9,4.7-1.4,7.6-1.4c1.4,0,2.8,0.2,4.2,0.5c1.4,0.3,2.8,0.8,4.2,1.4s2.7,1.3,3.9,2.2l-3.1,6.1c-1.5-1-3-1.8-4.6-2.4
		s-3.2-0.8-4.6-0.8c-2.2,0-3.9,0.4-5.1,1.1s-1.8,1.8-1.8,3.1l0,0c0,1.1,0.3,2,0.9,2.6s1.4,1.1,2.3,1.4c0.9,0.3,2.2,0.6,3.9,0.9
		c0.1,0,0.1,0,0.2,0s0.1,0,0.2,0s0.2,0,0.3,0.1c0.1,0,0.2,0,0.3,0.1c2.4,0.5,4.5,1.1,6.1,1.7c1.6,0.7,3,1.8,4.1,3.3s1.6,3.6,1.6,6.2
		v0.1c0,2.4-0.6,4.5-1.7,6.3c-1.1,1.7-2.8,3.1-5,4s-4.8,1.4-7.9,1.4C458,597.1,456.2,596.9,454.4,596.5z"/>
	<path class="st27" d="M485.1,595.7c-1.8-0.9-3.1-2.3-4-4.1s-1.4-3.9-1.4-6.4v-4.5c0-2.5,0.5-4.6,1.4-6.4c0.9-1.8,2.3-3.1,4-4
		c1.8-0.9,3.9-1.4,6.4-1.4s4.6,0.5,6.4,1.4s3.1,2.3,4,4c0.9,1.8,1.4,3.9,1.4,6.4v4.5c0,2.5-0.5,4.6-1.4,6.4c-0.9,1.8-2.3,3.1-4,4
		c-1.8,0.9-3.9,1.4-6.4,1.4C489,597.1,486.9,596.6,485.1,595.7z M494.9,588.8c0.8-0.9,1.2-2.1,1.2-3.6v-4.5c0-1.5-0.4-2.7-1.2-3.6
		c-0.8-0.8-1.9-1.3-3.4-1.3c-1.4,0-2.6,0.4-3.4,1.3c-0.8,0.8-1.2,2-1.2,3.6v4.5c0,1.5,0.4,2.7,1.2,3.6s1.9,1.3,3.4,1.3
		C492.9,590.1,494.1,589.7,494.9,588.8z"/>
	<path class="st27" d="M517.1,587.6c0,0.7,0.2,1.2,0.6,1.5c0.4,0.4,0.9,0.5,1.6,0.5h1.2v7h-3.7c-2.2,0-3.9-0.6-5.1-1.9
		s-1.8-3-1.8-5.4v-31.1h7.2L517.1,587.6L517.1,587.6z"/>
	<path class="st27" d="M532.5,585.9c0,1.3,0.4,2.3,1.1,3.1c0.7,0.7,1.8,1.1,3.2,1.1s2.4-0.4,3.1-1.1c0.7-0.7,1.1-1.8,1.1-3.2l0.4,6
		c-0.5,1.5-1.4,2.8-2.5,3.8c-1.2,1-2.6,1.5-4.3,1.5c-2.9,0-5.2-0.9-6.8-2.8c-1.6-1.9-2.4-4.6-2.4-8v-16.9h7.2L532.5,585.9
		L532.5,585.9z M541,569.3h7.2v27.4H541V569.3z"/>
	<path class="st27" d="M553.2,569.3h13.4v6.2h-13.4V569.3z M557.7,595c-1.1-1.2-1.7-3-1.7-5.4v-28.2h7.2v26.4c0,0.7,0.1,1.2,0.4,1.5
		s0.7,0.5,1.2,0.5h1.8v7H563C560.6,596.8,558.8,596.2,557.7,595z"/>
	<path class="st27" d="M572.5,558.3h7.2v7.2h-7.2V558.3z M572.5,569.3h7.2v27.4h-7.2V569.3z"/>
	<path class="st27" d="M591.1,595.7c-1.8-0.9-3.1-2.3-4-4.1s-1.4-3.9-1.4-6.4v-4.5c0-2.5,0.5-4.6,1.4-6.4c0.9-1.8,2.3-3.1,4-4
		c1.8-0.9,3.9-1.4,6.4-1.4s4.6,0.5,6.4,1.4c1.8,0.9,3.1,2.3,4,4c0.9,1.8,1.4,3.9,1.4,6.4v4.5c0,2.5-0.5,4.6-1.4,6.4
		c-0.9,1.8-2.3,3.1-4,4c-1.8,0.9-3.9,1.4-6.4,1.4S592.9,596.6,591.1,595.7z M600.9,588.8c0.8-0.9,1.2-2.1,1.2-3.6v-4.5
		c0-1.5-0.4-2.7-1.2-3.6s-1.9-1.3-3.4-1.3c-1.4,0-2.6,0.4-3.4,1.3c-0.8,0.8-1.2,2-1.2,3.6v4.5c0,1.5,0.4,2.7,1.2,3.6
		s1.9,1.3,3.4,1.3C598.9,590.1,600.1,589.7,600.9,588.8z"/>
	<path class="st27" d="M615.9,569.3h7.2v27.4h-7.2V569.3z M631.7,580.1c0-1.3-0.4-2.4-1.1-3.1c-0.8-0.7-1.9-1.1-3.3-1.1
		c-1.3,0-2.4,0.4-3.1,1.1c-0.7,0.7-1.1,1.8-1.1,3.2l-0.6-6.1c0.8-1.7,1.8-3,3-3.9s2.6-1.3,4.3-1.3c2.9,0,5.1,1,6.7,2.9
		c1.6,1.9,2.4,4.7,2.4,8.2v16.6h-7.2L631.7,580.1L631.7,580.1z"/>
</g>
</svg>
